<svg width="744" height="718" viewBox="0 0 744 718" fill="none" xmlns="http://www.w3.org/2000/svg">
<ellipse cx="372" cy="359" rx="372" ry="359" fill="white"/>
<path d="M476.591 224.49C477.78 224.484 478.969 224.479 480.194 224.473C481.505 224.472 482.816 224.47 484.167 224.469C485.557 224.465 486.946 224.46 488.336 224.454C492.117 224.441 495.898 224.435 499.679 224.43C502.042 224.427 504.404 224.423 506.766 224.419C514.157 224.405 521.548 224.395 528.938 224.392C537.47 224.387 546.002 224.37 554.533 224.341C561.127 224.319 567.721 224.309 574.314 224.308C578.253 224.306 582.191 224.301 586.129 224.283C589.836 224.266 593.542 224.264 597.249 224.273C599.254 224.274 601.259 224.26 603.264 224.246C604.465 224.252 605.665 224.257 606.901 224.263C607.94 224.262 608.979 224.26 610.05 224.259C615.203 224.908 619.057 227.129 622.313 231.13C622.804 231.718 623.295 232.306 623.801 232.912C626.498 236.777 626.575 241.096 626 245.63C624.102 251.532 621.018 255.107 616 258.63C612.799 259.698 610.427 259.787 607.06 259.836C605.228 259.866 605.228 259.866 603.36 259.896C602.041 259.913 600.722 259.93 599.363 259.947C598 259.967 596.637 259.988 595.273 260.01C591.688 260.065 588.102 260.114 584.517 260.163C580.857 260.213 577.197 260.269 573.537 260.324C566.358 260.431 559.179 260.533 552 260.63C551.82 261.544 551.639 262.458 551.453 263.399C547.47 283.514 543.372 303.596 539 323.63C539.99 323.668 540.98 323.705 542 323.744C558.713 324.51 558.713 324.51 563.774 329.314C568.995 335.21 569.194 338.963 569.188 346.693C569.187 347.772 569.186 348.851 569.185 349.963C569.068 366.742 568.082 383.499 567.133 400.248C567.008 402.493 566.889 404.738 566.774 406.983C566.58 410.721 566.356 414.457 566.125 418.193C566.071 419.255 566.017 420.317 565.962 421.411C565.454 428.827 564.011 434.77 558.5 440.005C552.961 443.606 548.615 444.733 542 443.63C535.95 440.939 532.441 437.843 530 431.63C529.603 428.04 529.673 424.488 529.75 420.88C529.762 419.831 529.774 418.781 529.786 417.699C529.956 405.669 530.463 393.649 531 381.63C531.097 379.379 531.193 377.128 531.289 374.877C531.521 369.461 531.758 364.046 532 358.63C531.062 358.545 530.124 358.459 529.158 358.371C525.658 358.05 522.158 357.728 518.658 357.404C517.147 357.264 515.636 357.126 514.125 356.988C511.945 356.789 509.766 356.587 507.586 356.384C506.277 356.264 504.968 356.143 503.619 356.019C500.381 355.671 497.209 355.173 494 354.63C492.043 354.567 490.083 354.544 488.125 354.568C487.158 354.577 486.192 354.586 485.196 354.595C484.471 354.607 483.747 354.619 483 354.63C482.706 355.495 482.412 356.36 482.11 357.252C472.181 385.488 457.674 411.866 437 433.63C436.537 434.121 436.074 434.611 435.597 435.116C429.233 441.814 422.884 447.714 415 452.63C414.12 453.186 413.239 453.742 412.332 454.314C405.341 458.62 399.413 461.99 391 460.63C385.377 458.324 381.915 454.993 379 449.63C377.162 444.117 377.31 439.326 379.5 433.943C383.331 428.137 389.583 424.882 395.375 421.318C421.72 404.738 439.467 371.912 448 342.63C447.735 338.988 447.069 335.851 445.977 332.369C442.009 317.181 446.798 300.936 452 286.63C451.406 287.176 450.812 287.721 450.199 288.283C444.896 293.108 439.485 297.743 433.91 302.252C431.33 304.361 428.789 306.505 426.257 308.672C403.459 328.172 403.459 328.172 392.688 327.943C387.42 327.33 384.503 324.337 381.188 320.505C377.271 315.358 377.284 310.977 378 304.63C380.195 298.059 385.625 294.173 390.906 290.048C394.18 287.49 397.343 284.829 400.5 282.13C404.446 278.775 408.417 275.458 412.438 272.193C416.684 268.738 420.853 265.203 425 261.63C430.016 257.309 435.089 253.075 440.231 248.904C442.758 246.829 445.25 244.72 447.735 242.595C452.792 238.272 457.915 234.064 463.188 230.005C463.741 229.58 464.293 229.154 464.863 228.715C469.146 225.449 471.214 224.505 476.591 224.49Z" fill="#EE0707"/>
<path d="M217.785 343.487C218.771 343.479 219.756 343.472 220.771 343.465C221.851 343.462 222.931 343.46 224.044 343.457C225.183 343.45 226.321 343.444 227.494 343.437C231.27 343.417 235.046 343.405 238.823 343.396C240.112 343.391 241.401 343.387 242.729 343.383C248.849 343.364 254.969 343.35 261.089 343.342C268.142 343.332 275.194 343.305 282.247 343.265C288.364 343.231 294.481 343.219 300.599 343.215C303.196 343.21 305.794 343.199 308.391 343.18C312.03 343.156 315.667 343.157 319.306 343.164C320.376 343.151 321.446 343.138 322.548 343.125C328.877 343.169 333.738 343.949 338.998 347.634C342.509 351.232 343.3 354.185 343.561 359.071C343.379 363.675 342.464 366.555 339.678 370.196C333.58 375.416 327.437 375.031 319.819 374.927C318.651 374.923 317.483 374.918 316.28 374.914C312.561 374.897 308.842 374.859 305.123 374.821C302.597 374.806 300.071 374.793 297.545 374.78C291.363 374.747 285.181 374.697 278.998 374.634C278.926 375.528 278.926 375.528 278.852 376.441C278.277 382.882 277.233 389.123 275.932 395.454C275.734 396.439 275.535 397.423 275.331 398.438C274.704 401.546 274.07 404.652 273.436 407.759C273.007 409.881 272.577 412.003 272.149 414.126C271.104 419.296 270.053 424.465 268.998 429.634C269.617 429.631 270.236 429.628 270.873 429.625C272.09 429.621 272.09 429.621 273.331 429.617C274.136 429.614 274.94 429.611 275.769 429.608C281.24 429.671 285.574 430.488 289.873 433.946C293.377 438.377 295.405 441.335 295.223 447.095C295.182 448.679 295.182 448.679 295.14 450.295C295.093 451.397 295.047 452.499 294.998 453.634C294.961 454.708 294.923 455.782 294.884 456.888C294.749 460.345 294.585 463.8 294.413 467.255C294.351 468.517 294.289 469.778 294.225 471.078C294.094 473.73 293.961 476.381 293.827 479.032C293.656 482.391 293.495 485.751 293.336 489.11C293.18 492.367 293.014 495.623 292.85 498.88C292.795 500.066 292.739 501.252 292.682 502.473C291.513 524.754 291.513 524.754 287.561 528.884C282.629 532.252 277.778 532.121 271.998 531.634C267.129 529.98 263.339 527.282 260.998 522.634C260.3 518.21 260.439 513.852 260.561 509.384C260.587 507.442 260.587 507.442 260.614 505.461C260.868 489.834 261.917 474.222 262.998 458.634C262.347 458.651 261.695 458.669 261.023 458.687C253.806 458.794 246.889 458.135 239.748 457.134C230.407 455.842 230.407 455.842 220.998 455.634C220.658 456.603 220.318 457.573 219.967 458.571C216.348 468.666 212.037 478.173 206.998 487.634C206.687 488.229 206.375 488.824 206.054 489.438C193.784 512.718 174.993 536.421 149.998 546.634C145.607 547.688 142.165 546.944 138.186 544.884C134.236 542.096 132.515 540.183 130.998 535.634C130.319 531.288 130.059 527.357 132.209 523.411C135.953 518.851 140.299 516.053 145.389 513.177C166.23 500.853 179.488 475.722 188.123 453.759C188.443 452.986 188.763 452.214 189.093 451.418C190.994 446.332 191.027 443.105 189.567 437.902C188.601 434.048 188.659 430.212 188.686 426.259C188.689 425.43 188.691 424.602 188.694 423.748C188.803 417.329 189.838 411.692 191.998 405.634C192.404 404.241 192.801 402.845 193.186 401.446C193.454 400.518 193.722 399.59 193.998 398.634C188.846 402.344 183.988 406.3 179.186 410.446C153.068 432.997 153.068 432.997 144.057 432.849C139.489 432.372 136.697 430.408 133.686 427.071C131.497 423.909 130.826 422.183 130.748 418.384C130.71 417.262 130.71 417.262 130.67 416.118C131.449 410.222 134.662 406.622 138.998 402.821C139.981 401.958 140.963 401.094 141.975 400.204C145.65 397.08 149.364 394.012 153.116 390.981C156.279 388.406 159.392 385.777 162.498 383.134C167.348 379.012 172.25 374.964 177.186 370.946C180.316 368.372 183.41 365.758 186.498 363.134C209.609 343.527 209.609 343.527 217.785 343.487Z" fill="#EE0707"/>
<path d="M378.497 469.272C379.756 469.269 381.016 469.267 382.314 469.264C385.798 469.257 389.283 469.269 392.767 469.284C396.529 469.297 400.291 469.293 404.053 469.291C410.567 469.289 417.081 469.298 423.595 469.315C433.013 469.34 442.431 469.347 451.85 469.351C467.131 469.358 482.412 469.378 497.693 469.406C512.535 469.434 527.378 469.455 542.22 469.468C543.135 469.468 544.05 469.469 544.993 469.47C549.584 469.474 554.176 469.478 558.767 469.481C596.845 469.513 634.922 469.565 673 469.632C672.421 472.885 671.649 475.795 670.371 478.839C670.058 479.59 669.746 480.341 669.424 481.115C669.098 481.884 668.773 482.653 668.438 483.445C667.943 484.627 667.943 484.627 667.439 485.834C666.63 487.768 665.816 489.701 665 491.632C664.376 491.634 663.752 491.636 663.11 491.638C626.175 491.741 589.241 491.849 552.307 491.964C547.877 491.977 543.447 491.991 539.017 492.005C537.694 492.009 537.694 492.009 536.345 492.013C522.045 492.057 507.745 492.098 493.445 492.137C478.783 492.177 464.121 492.222 449.459 492.269C440.404 492.299 431.349 492.325 422.295 492.348C416.094 492.363 409.894 492.383 403.693 492.405C400.111 492.418 396.528 492.429 392.945 492.436C389.07 492.443 385.195 492.458 381.32 492.474C380.175 492.475 379.03 492.476 377.85 492.477C376.306 492.485 376.306 492.485 374.73 492.494C373.834 492.496 372.939 492.499 372.016 492.502C370.003 492.41 370.003 492.41 369 493.632C368.902 495.757 368.875 497.886 368.874 500.013C368.872 500.68 368.87 501.347 368.868 502.034C368.864 503.488 368.862 504.942 368.862 506.396C368.858 509.497 368.837 512.598 368.817 515.699C368.779 521.475 368.747 527.25 368.75 533.026C368.75 537.041 368.727 541.055 368.688 545.07C368.677 546.594 368.676 548.118 368.683 549.642C368.728 559.453 368.076 567.675 361.478 575.418C354.401 582.17 345.513 584.233 336.012 584.187C335.059 584.199 334.105 584.21 333.123 584.221C329.954 584.253 326.787 584.257 323.619 584.261C321.336 584.278 319.054 584.296 316.772 584.316C310.592 584.364 304.413 584.386 298.233 584.4C294.37 584.41 290.506 584.424 286.643 584.44C275.931 584.484 265.219 584.521 254.507 584.531C253.823 584.532 253.139 584.532 252.434 584.533C251.048 584.534 249.662 584.535 248.276 584.537C247.244 584.537 247.244 584.537 246.192 584.538C245.158 584.539 245.158 584.539 244.104 584.54C232.933 584.552 221.763 584.614 210.592 584.698C199.103 584.783 187.614 584.827 176.125 584.83C169.682 584.833 163.24 584.854 156.797 584.918C150.739 584.977 144.684 584.983 138.627 584.95C136.407 584.946 134.186 584.962 131.967 584.998C114.315 585.264 114.315 585.264 109.733 581.217C107.443 578.454 105.708 575.778 104 572.632C103.082 571.459 102.138 570.304 101.152 569.187C100.421 568.303 99.6905 567.419 98.9375 566.507C98.1834 565.597 97.4293 564.687 96.6523 563.75C95 561.632 95 561.632 95 560.632C177.5 560.302 260 559.972 345 559.632C345.495 524.982 345.495 524.982 346 489.632C350.646 480.34 354.243 474.239 363.755 470.273C368.547 468.906 373.554 469.235 378.497 469.272Z" fill="#EE0909"/>
<path d="M232.999 153.629C239.428 158.207 243.524 163.574 246.999 170.629C247.628 170.571 248.257 170.513 248.905 170.454C255.706 170.095 259.761 171.263 264.999 175.629C269.469 179.756 269.746 183.826 269.999 189.629C270.989 189.299 271.979 188.969 272.999 188.629C280.019 187.927 285.561 189.936 291.057 194.243C296.642 199.479 298.059 203.903 298.374 211.504C298.236 218.063 296.851 222.459 292.456 227.344C285.954 233.429 278.805 235.085 270.155 235.018C268.888 235.025 268.888 235.025 267.595 235.034C264.824 235.047 262.054 235.038 259.284 235.028C257.344 235.03 255.404 235.033 253.464 235.037C249.407 235.041 245.349 235.035 241.292 235.021C236.109 235.003 230.927 235.013 225.745 235.031C221.741 235.042 217.737 235.039 213.733 235.031C211.823 235.029 209.913 235.031 208.003 235.038C205.326 235.046 202.649 235.034 199.972 235.018C199.194 235.024 198.416 235.03 197.614 235.036C190.369 234.953 182.804 233.361 177.35 228.258C172.376 222.263 170.168 216.006 170.585 208.235C171.666 201.429 174.911 197.02 180.268 192.817C184.171 190.139 187.297 189.361 191.999 189.629C191.504 188.206 191.504 188.206 190.999 186.754C188.595 178.099 189.75 170.491 193.999 162.629C198.011 156.362 203.867 152.215 210.983 150.016C218.949 148.488 225.932 149.692 232.999 153.629Z" fill="#EE0808"/>
<path d="M372.001 90.6309C375.016 93.3654 377.816 96.1819 380.001 99.6309C380.001 100.621 380.001 101.611 380.001 102.631C380.581 102.584 381.161 102.538 381.759 102.49C387.42 102.229 390.535 102.803 395.001 106.631C397.576 109.206 397.975 110.188 398.188 113.881C398.095 115.242 398.095 115.242 398.001 116.631C398.641 116.584 399.282 116.538 399.942 116.49C406.299 116.225 409.894 116.75 415.001 120.631C418.48 124.568 419.805 128.172 420.161 133.326C419.83 138.085 417.766 141.821 414.466 145.205C409.863 149.151 407.321 149.76 401.351 149.808C400.668 149.814 399.985 149.821 399.281 149.828C397.016 149.848 394.751 149.859 392.485 149.869C391.711 149.873 390.937 149.877 390.14 149.882C386.041 149.902 381.943 149.917 377.845 149.926C373.617 149.937 369.39 149.972 365.162 150.011C361.907 150.037 358.652 150.046 355.397 150.049C353.839 150.054 352.281 150.066 350.723 150.084C348.537 150.109 346.353 150.108 344.168 150.101C342.926 150.107 341.684 150.113 340.404 150.119C335.223 149.376 331.425 146.627 328.188 142.568C325.305 138.697 324.586 135.649 324.657 130.822C325.516 125.346 328.849 121.548 333.063 118.193C335.467 116.915 337.333 116.041 340.001 115.631C339.671 114.641 339.341 113.651 339.001 112.631C338.219 106.132 339.11 100.96 343.001 95.6309C350.666 87.5097 361.893 83.6515 372.001 90.6309Z" fill="#EE0707"/>
<path d="M530.686 148.321C539.165 154.403 544.888 162.322 546.998 172.633C547.949 183.052 545.371 192.327 538.998 200.633C532.721 208.139 524.567 212.964 514.701 213.969C503.211 214.099 494.507 211.555 485.998 203.633C478.18 195.237 475.299 186.36 475.682 174.962C476.566 165.664 480.496 157.633 487.518 151.395C500.895 141.161 515.963 139.178 530.686 148.321Z" fill="#EE0707"/>
<path d="M261.999 277.63C269.361 282.734 273.179 288.169 275.999 296.63C276.801 307.478 276.126 316.578 269.312 325.442C265.821 329.199 261.612 331.488 256.999 333.63C256.21 333.997 255.421 334.365 254.608 334.743C247.04 337.315 238.445 336.265 231.284 332.958C222.986 328.135 218.053 321.701 214.999 312.63C213.948 301.931 215.126 293.384 221.187 284.38C232.749 273.074 247.325 269.809 261.999 277.63Z" fill="#EE0808"/>
</svg>
