<svg width="578" height="499" viewBox="0 0 578 499" fill="none" xmlns="http://www.w3.org/2000/svg">
<path d="M381.591 137.49C382.78 137.484 383.969 137.479 385.194 137.473C386.505 137.472 387.816 137.47 389.167 137.469C390.557 137.465 391.946 137.46 393.336 137.454C397.117 137.441 400.898 137.435 404.679 137.43C407.042 137.427 409.404 137.423 411.766 137.419C419.157 137.405 426.548 137.395 433.938 137.392C442.47 137.387 451.002 137.37 459.533 137.341C466.127 137.319 472.721 137.309 479.314 137.308C483.253 137.306 487.191 137.301 491.129 137.283C494.836 137.266 498.542 137.264 502.249 137.273C504.254 137.274 506.259 137.26 508.264 137.246C509.465 137.252 510.665 137.257 511.901 137.263C512.94 137.262 513.979 137.26 515.05 137.259C520.203 137.908 524.057 140.129 527.313 144.13C527.804 144.718 528.295 145.306 528.801 145.912C531.498 149.777 531.575 154.096 531 158.63C529.102 164.532 526.018 168.107 521 171.63C517.799 172.698 515.427 172.787 512.06 172.836C510.228 172.866 510.228 172.866 508.36 172.896C507.041 172.913 505.722 172.93 504.363 172.947C503 172.967 501.637 172.988 500.273 173.01C496.688 173.065 493.102 173.114 489.517 173.163C485.857 173.213 482.197 173.269 478.537 173.324C471.358 173.431 464.179 173.533 457 173.63C456.82 174.544 456.639 175.458 456.453 176.399C452.47 196.514 448.372 216.596 444 236.63C444.99 236.668 445.98 236.705 447 236.744C463.713 237.51 463.713 237.51 468.774 242.314C473.995 248.21 474.194 251.963 474.188 259.693C474.187 260.772 474.186 261.851 474.185 262.963C474.068 279.742 473.082 296.499 472.133 313.248C472.008 315.493 471.889 317.738 471.774 319.983C471.58 323.721 471.356 327.457 471.125 331.193C471.071 332.255 471.017 333.317 470.962 334.411C470.454 341.827 469.011 347.77 463.5 353.005C457.961 356.606 453.615 357.733 447 356.63C440.95 353.939 437.441 350.843 435 344.63C434.603 341.04 434.673 337.488 434.75 333.88C434.762 332.831 434.774 331.781 434.786 330.699C434.956 318.669 435.463 306.649 436 294.63C436.097 292.379 436.193 290.128 436.289 287.877C436.521 282.461 436.758 277.046 437 271.63C436.062 271.545 435.124 271.459 434.158 271.371C430.658 271.05 427.158 270.728 423.658 270.404C422.147 270.264 420.636 270.126 419.125 269.988C416.945 269.789 414.766 269.587 412.586 269.384C411.277 269.264 409.968 269.143 408.619 269.019C405.381 268.671 402.209 268.173 399 267.63C397.043 267.567 395.083 267.544 393.125 267.568C392.158 267.577 391.192 267.586 390.196 267.595C389.471 267.607 388.747 267.619 388 267.63C387.706 268.495 387.412 269.36 387.11 270.252C377.181 298.488 362.674 324.866 342 346.63C341.537 347.121 341.074 347.611 340.597 348.116C334.233 354.814 327.884 360.714 320 365.63C319.12 366.186 318.239 366.742 317.332 367.314C310.341 371.62 304.413 374.99 296 373.63C290.377 371.324 286.915 367.993 284 362.63C282.162 357.117 282.31 352.326 284.5 346.943C288.331 341.137 294.583 337.882 300.375 334.318C326.72 317.738 344.467 284.912 353 255.63C352.735 251.988 352.069 248.851 350.977 245.369C347.009 230.181 351.798 213.936 357 199.63C356.406 200.176 355.812 200.721 355.199 201.283C349.896 206.108 344.485 210.743 338.91 215.252C336.33 217.361 333.789 219.505 331.257 221.672C308.459 241.172 308.459 241.172 297.688 240.943C292.42 240.33 289.503 237.337 286.188 233.505C282.271 228.358 282.284 223.977 283 217.63C285.195 211.059 290.625 207.173 295.906 203.048C299.18 200.49 302.343 197.829 305.5 195.13C309.446 191.775 313.417 188.458 317.438 185.193C321.684 181.738 325.853 178.203 330 174.63C335.016 170.309 340.089 166.075 345.231 161.904C347.758 159.829 350.25 157.72 352.735 155.595C357.792 151.272 362.915 147.064 368.188 143.005C368.741 142.58 369.293 142.154 369.863 141.715C374.146 138.449 376.214 137.505 381.591 137.49Z" fill="#EE0707"/>
<path d="M122.785 256.487C123.771 256.479 124.756 256.472 125.771 256.465C126.851 256.462 127.931 256.46 129.044 256.457C130.183 256.45 131.321 256.444 132.494 256.437C136.27 256.417 140.046 256.405 143.823 256.396C145.112 256.391 146.401 256.387 147.729 256.383C153.849 256.364 159.969 256.35 166.089 256.342C173.142 256.332 180.194 256.305 187.247 256.265C193.364 256.231 199.481 256.219 205.599 256.215C208.196 256.21 210.794 256.199 213.391 256.18C217.03 256.156 220.667 256.157 224.306 256.164C225.376 256.151 226.446 256.138 227.548 256.125C233.877 256.169 238.738 256.949 243.998 260.634C247.509 264.232 248.3 267.185 248.561 272.071C248.379 276.675 247.464 279.555 244.678 283.196C238.58 288.416 232.437 288.031 224.819 287.927C223.651 287.923 222.483 287.918 221.28 287.914C217.561 287.897 213.842 287.859 210.123 287.821C207.597 287.806 205.071 287.793 202.545 287.78C196.363 287.747 190.181 287.697 183.998 287.634C183.926 288.528 183.926 288.528 183.852 289.441C183.277 295.882 182.233 302.123 180.932 308.454C180.734 309.439 180.535 310.423 180.331 311.438C179.704 314.546 179.07 317.652 178.436 320.759C178.007 322.881 177.577 325.003 177.149 327.126C176.104 332.296 175.053 337.465 173.998 342.634C174.617 342.631 175.236 342.628 175.873 342.625C177.09 342.621 177.09 342.621 178.331 342.617C179.136 342.614 179.94 342.611 180.769 342.608C186.24 342.671 190.574 343.488 194.873 346.946C198.377 351.377 200.405 354.335 200.223 360.095C200.182 361.679 200.182 361.679 200.14 363.295C200.093 364.397 200.047 365.499 199.998 366.634C199.961 367.708 199.923 368.782 199.884 369.888C199.749 373.345 199.585 376.8 199.413 380.255C199.351 381.517 199.289 382.778 199.225 384.078C199.094 386.73 198.961 389.381 198.827 392.032C198.656 395.391 198.495 398.751 198.336 402.11C198.18 405.367 198.014 408.623 197.85 411.88C197.795 413.066 197.739 414.252 197.682 415.473C196.513 437.754 196.513 437.754 192.561 441.884C187.629 445.252 182.778 445.121 176.998 444.634C172.129 442.98 168.339 440.282 165.998 435.634C165.3 431.21 165.439 426.852 165.561 422.384C165.587 420.442 165.587 420.442 165.614 418.461C165.868 402.834 166.917 387.222 167.998 371.634C167.347 371.651 166.695 371.669 166.023 371.687C158.806 371.794 151.889 371.135 144.748 370.134C135.407 368.842 135.407 368.842 125.998 368.634C125.658 369.603 125.318 370.573 124.967 371.571C121.348 381.666 117.037 391.173 111.998 400.634C111.687 401.229 111.375 401.824 111.054 402.438C98.7841 425.718 79.9932 449.421 54.9985 459.634C50.6073 460.688 47.1649 459.944 43.186 457.884C39.2362 455.096 37.5148 453.183 35.9985 448.634C35.3192 444.288 35.0595 440.357 37.2094 436.411C40.9525 431.851 45.2989 429.053 50.3891 426.177C71.2298 413.853 84.4876 388.722 93.1235 366.759C93.4433 365.986 93.7632 365.214 94.0927 364.418C95.994 359.332 96.0272 356.105 94.5668 350.902C93.6012 347.048 93.6593 343.212 93.686 339.259C93.6887 338.43 93.6915 337.602 93.6943 336.748C93.8035 330.329 94.8384 324.692 96.9985 318.634C97.4039 317.241 97.801 315.845 98.186 314.446C98.4541 313.518 98.7222 312.59 98.9985 311.634C93.8461 315.344 88.9875 319.3 84.186 323.446C58.0682 345.997 58.0682 345.997 49.0571 345.849C44.4887 345.372 41.6973 343.408 38.686 340.071C36.4968 336.909 35.826 335.183 35.7485 331.384C35.7098 330.262 35.7098 330.262 35.6704 329.118C36.4491 323.222 39.6622 319.622 43.9985 315.821C44.9808 314.958 45.963 314.094 46.975 313.204C50.6497 310.08 54.3636 307.012 58.1157 303.981C61.2786 301.406 64.3917 298.777 67.4985 296.134C72.3478 292.012 77.2501 287.964 82.186 283.946C85.3165 281.372 88.41 278.758 91.4985 276.134C114.609 256.527 114.609 256.527 122.785 256.487Z" fill="#EE0707"/>
<path d="M283.497 382.272C284.756 382.269 286.016 382.267 287.314 382.264C290.798 382.257 294.283 382.269 297.767 382.284C301.529 382.297 305.291 382.293 309.053 382.291C315.567 382.289 322.081 382.298 328.595 382.315C338.013 382.34 347.431 382.347 356.85 382.351C372.131 382.358 387.412 382.378 402.693 382.406C417.535 382.434 432.378 382.455 447.22 382.468C448.135 382.468 449.05 382.469 449.993 382.47C454.584 382.474 459.176 382.478 463.767 382.481C501.845 382.513 539.922 382.565 578 382.632C577.421 385.885 576.649 388.795 575.371 391.839C575.058 392.59 574.746 393.341 574.424 394.115C574.098 394.884 573.773 395.653 573.438 396.445C572.943 397.627 572.943 397.627 572.439 398.834C571.63 400.768 570.816 402.701 570 404.632C569.376 404.634 568.752 404.636 568.11 404.638C531.175 404.741 494.241 404.849 457.307 404.964C452.877 404.977 448.447 404.991 444.017 405.005C442.694 405.009 442.694 405.009 441.345 405.013C427.045 405.057 412.745 405.098 398.445 405.137C383.783 405.177 369.121 405.222 354.459 405.269C345.404 405.299 336.349 405.325 327.295 405.348C321.094 405.363 314.894 405.383 308.693 405.405C305.111 405.418 301.528 405.429 297.945 405.436C294.07 405.443 290.195 405.458 286.32 405.474C285.175 405.475 284.03 405.476 282.85 405.477C281.306 405.485 281.306 405.485 279.73 405.494C278.834 405.496 277.939 405.499 277.016 405.502C275.003 405.41 275.003 405.41 274 406.632C273.902 408.757 273.875 410.886 273.874 413.013C273.872 413.68 273.87 414.347 273.868 415.034C273.864 416.488 273.862 417.942 273.862 419.396C273.858 422.497 273.837 425.598 273.817 428.699C273.779 434.475 273.747 440.25 273.75 446.026C273.75 450.041 273.727 454.055 273.688 458.07C273.677 459.594 273.676 461.118 273.683 462.642C273.728 472.453 273.076 480.675 266.478 488.418C259.401 495.17 250.513 497.233 241.012 497.187C240.059 497.199 239.105 497.21 238.123 497.221C234.954 497.253 231.787 497.257 228.619 497.261C226.336 497.278 224.054 497.296 221.772 497.316C215.592 497.364 209.413 497.386 203.233 497.4C199.37 497.41 195.506 497.424 191.643 497.44C180.931 497.484 170.219 497.521 159.507 497.531C158.823 497.532 158.139 497.532 157.434 497.533C156.048 497.534 154.662 497.535 153.276 497.537C152.244 497.537 152.244 497.537 151.192 497.538C150.158 497.539 150.158 497.539 149.104 497.54C137.933 497.552 126.763 497.614 115.592 497.698C104.103 497.783 92.6144 497.827 81.1248 497.83C74.6815 497.833 68.2395 497.854 61.7966 497.918C55.7392 497.977 49.6841 497.983 43.6266 497.95C41.4066 497.946 39.1864 497.962 36.9667 497.998C19.3148 498.264 19.3148 498.264 14.7328 494.217C12.4429 491.454 10.7084 488.778 9 485.632C8.08242 484.459 7.138 483.304 6.15234 482.187C5.42145 481.303 4.69055 480.419 3.9375 479.507C3.1834 478.597 2.4293 477.687 1.65234 476.75C0 474.632 0 474.632 0 473.632C82.5 473.302 165 472.972 250 472.632C250.495 437.982 250.495 437.982 251 402.632C255.646 393.34 259.243 387.239 268.755 383.273C273.547 381.906 278.554 382.235 283.497 382.272Z" fill="#EE0909"/>
<path d="M137.999 66.6294C144.428 71.2073 148.524 76.5741 151.999 83.6294C152.628 83.5714 153.257 83.5134 153.905 83.4536C160.706 83.0952 164.761 84.263 169.999 88.6294C174.469 92.7555 174.746 96.8262 174.999 102.629C175.989 102.299 176.979 101.969 177.999 101.629C185.019 100.927 190.561 102.936 196.057 107.243C201.642 112.479 203.059 116.903 203.374 124.504C203.236 131.063 201.851 135.459 197.456 140.344C190.954 146.429 183.805 148.085 175.155 148.018C173.888 148.025 173.888 148.025 172.595 148.034C169.824 148.047 167.054 148.038 164.284 148.028C162.344 148.03 160.404 148.033 158.464 148.037C154.407 148.041 150.349 148.035 146.292 148.021C141.109 148.003 135.927 148.013 130.745 148.031C126.741 148.042 122.737 148.039 118.733 148.031C116.823 148.029 114.913 148.031 113.003 148.038C110.326 148.046 107.649 148.034 104.972 148.018C104.194 148.024 103.416 148.03 102.614 148.036C95.3693 147.953 87.8036 146.361 82.3503 141.258C77.3761 135.263 75.1682 129.006 75.5847 121.235C76.6662 114.429 79.9113 110.02 85.2683 105.817C89.171 103.139 92.2969 102.361 96.9987 102.629C96.5037 101.206 96.5037 101.206 95.9987 99.7544C93.5953 91.0986 94.7503 83.4909 98.9987 75.6294C103.011 69.3617 108.867 65.2154 115.983 63.0161C123.949 61.4878 130.932 62.6918 137.999 66.6294Z" fill="#EE0808"/>
<path d="M277.001 3.6309C280.016 6.36539 282.816 9.18189 285.001 12.6309C285.001 13.6209 285.001 14.6109 285.001 15.6309C285.581 15.5845 286.161 15.5381 286.759 15.4903C292.42 15.2287 295.535 15.8027 300.001 19.6309C302.576 22.2056 302.975 23.188 303.188 26.8809C303.095 28.2422 303.095 28.2422 303.001 29.6309C303.641 29.5845 304.282 29.5381 304.942 29.4903C311.299 29.225 314.894 29.7497 320.001 33.6309C323.48 37.5681 324.805 41.1717 325.161 46.3262C324.83 51.0847 322.766 54.8207 319.466 58.2051C314.863 62.1514 312.321 62.7605 306.351 62.8079C305.668 62.8145 304.985 62.821 304.281 62.8278C302.016 62.8476 299.751 62.8592 297.485 62.8692C296.711 62.8733 295.937 62.8773 295.14 62.8815C291.041 62.9024 286.943 62.9167 282.845 62.9261C278.617 62.9371 274.39 62.9715 270.162 63.0112C266.907 63.0374 263.652 63.0458 260.397 63.0494C258.839 63.0542 257.281 63.0658 255.723 63.0844C253.537 63.1088 251.353 63.1078 249.168 63.1009C247.926 63.1067 246.684 63.1126 245.404 63.1187C240.223 62.3761 236.425 59.6273 233.188 55.5684C230.305 51.6966 229.586 48.6495 229.657 43.8223C230.516 38.3461 233.849 34.5475 238.063 31.1934C240.467 29.9151 242.333 29.0414 245.001 28.6309C244.671 27.6409 244.341 26.6509 244.001 25.6309C243.219 19.1316 244.11 13.9597 248.001 8.6309C255.666 0.509747 266.893 -3.34851 277.001 3.6309Z" fill="#EE0707"/>
<path d="M435.686 61.3209C444.165 67.4033 449.888 75.3216 451.998 85.6334C452.949 96.0516 450.371 105.327 443.998 113.633C437.721 121.139 429.567 125.964 419.701 126.969C408.211 127.099 399.507 124.555 390.998 116.633C383.18 108.237 380.299 99.36 380.682 87.9615C381.566 78.664 385.496 70.6326 392.518 64.3951C405.895 54.1607 420.963 52.1784 435.686 61.3209Z" fill="#EE0707"/>
<path d="M166.999 190.63C174.361 195.734 178.179 201.169 180.999 209.63C181.801 220.478 181.126 229.578 174.312 238.442C170.821 242.199 166.612 244.488 161.999 246.63C161.21 246.997 160.421 247.365 159.608 247.743C152.04 250.315 143.445 249.265 136.284 245.958C127.986 241.135 123.053 234.701 119.999 225.63C118.948 214.931 120.126 206.384 126.187 197.38C137.749 186.074 152.325 182.809 166.999 190.63Z" fill="#EE0808"/>
</svg>
