<svg width="2993" height="499" viewBox="0 0 2993 499" fill="none" xmlns="http://www.w3.org/2000/svg">
<path d="M381.591 137.49C382.78 137.484 383.969 137.479 385.194 137.473C386.505 137.472 387.816 137.47 389.167 137.469C390.557 137.465 391.946 137.46 393.336 137.454C397.117 137.441 400.898 137.435 404.679 137.43C407.042 137.427 409.404 137.423 411.766 137.419C419.157 137.405 426.548 137.395 433.938 137.392C442.47 137.387 451.002 137.37 459.533 137.341C466.127 137.319 472.721 137.309 479.314 137.308C483.253 137.306 487.191 137.301 491.129 137.283C494.836 137.266 498.542 137.264 502.249 137.273C504.254 137.274 506.259 137.26 508.264 137.246C509.465 137.252 510.665 137.257 511.901 137.263C512.94 137.262 513.979 137.26 515.05 137.259C520.203 137.908 524.057 140.129 527.313 144.13C527.804 144.718 528.295 145.306 528.801 145.912C531.498 149.777 531.575 154.096 531 158.63C529.102 164.532 526.018 168.107 521 171.63C517.799 172.698 515.427 172.787 512.06 172.836C510.228 172.866 510.228 172.866 508.36 172.896C507.041 172.913 505.722 172.93 504.363 172.947C503 172.967 501.637 172.988 500.273 173.01C496.688 173.065 493.102 173.114 489.517 173.163C485.857 173.213 482.197 173.269 478.537 173.324C471.358 173.431 464.179 173.533 457 173.63C456.82 174.544 456.639 175.458 456.453 176.399C452.47 196.514 448.372 216.596 444 236.63C444.99 236.668 445.98 236.705 447 236.744C463.713 237.51 463.713 237.51 468.774 242.314C473.995 248.21 474.194 251.963 474.188 259.693C474.187 260.772 474.186 261.851 474.185 262.963C474.068 279.742 473.082 296.499 472.133 313.248C472.008 315.493 471.889 317.738 471.774 319.983C471.58 323.721 471.356 327.457 471.125 331.193C471.071 332.255 471.017 333.317 470.962 334.411C470.454 341.827 469.011 347.77 463.5 353.005C457.961 356.606 453.615 357.733 447 356.63C440.95 353.939 437.441 350.843 435 344.63C434.603 341.04 434.673 337.488 434.75 333.88C434.762 332.831 434.774 331.781 434.786 330.699C434.956 318.669 435.463 306.649 436 294.63C436.097 292.379 436.193 290.128 436.289 287.877C436.521 282.461 436.758 277.046 437 271.63C436.062 271.545 435.124 271.459 434.158 271.371C430.658 271.05 427.158 270.728 423.658 270.404C422.147 270.264 420.636 270.126 419.125 269.988C416.945 269.789 414.766 269.587 412.586 269.384C411.277 269.264 409.968 269.143 408.619 269.019C405.381 268.671 402.209 268.173 399 267.63C397.043 267.567 395.083 267.544 393.125 267.568C392.158 267.577 391.192 267.586 390.196 267.595C389.471 267.607 388.747 267.619 388 267.63C387.706 268.495 387.412 269.36 387.11 270.252C377.181 298.488 362.674 324.866 342 346.63C341.537 347.121 341.074 347.611 340.597 348.116C334.233 354.814 327.884 360.714 320 365.63C319.12 366.186 318.239 366.742 317.332 367.314C310.341 371.62 304.413 374.99 296 373.63C290.377 371.324 286.915 367.993 284 362.63C282.162 357.117 282.31 352.326 284.5 346.943C288.331 341.137 294.583 337.882 300.375 334.318C326.72 317.738 344.467 284.912 353 255.63C352.735 251.988 352.069 248.851 350.977 245.369C347.009 230.181 351.798 213.936 357 199.63C356.406 200.176 355.812 200.721 355.199 201.283C349.896 206.108 344.485 210.743 338.91 215.252C336.33 217.361 333.789 219.505 331.257 221.672C308.459 241.172 308.459 241.172 297.688 240.943C292.42 240.33 289.503 237.337 286.188 233.505C282.271 228.358 282.284 223.977 283 217.63C285.195 211.059 290.625 207.173 295.906 203.048C299.18 200.49 302.343 197.829 305.5 195.13C309.446 191.775 313.417 188.458 317.438 185.193C321.684 181.738 325.853 178.203 330 174.63C335.016 170.309 340.089 166.075 345.231 161.904C347.758 159.829 350.25 157.72 352.735 155.595C357.792 151.272 362.915 147.064 368.188 143.005C368.741 142.58 369.293 142.154 369.863 141.715C374.146 138.449 376.214 137.505 381.591 137.49Z" fill="#EE0707"/>
<path d="M122.785 256.487C123.771 256.479 124.756 256.472 125.771 256.465C126.851 256.462 127.931 256.46 129.044 256.457C130.183 256.45 131.321 256.444 132.494 256.437C136.27 256.417 140.046 256.405 143.823 256.396C145.112 256.391 146.401 256.387 147.729 256.383C153.849 256.364 159.969 256.35 166.089 256.342C173.142 256.332 180.194 256.305 187.247 256.265C193.364 256.231 199.481 256.219 205.599 256.215C208.196 256.21 210.794 256.199 213.391 256.18C217.03 256.156 220.667 256.157 224.306 256.164C225.376 256.151 226.446 256.138 227.548 256.125C233.877 256.169 238.738 256.949 243.998 260.634C247.509 264.232 248.3 267.185 248.561 272.071C248.379 276.675 247.464 279.555 244.678 283.196C238.58 288.416 232.437 288.031 224.819 287.927C223.651 287.923 222.483 287.918 221.28 287.914C217.561 287.897 213.842 287.859 210.123 287.821C207.597 287.806 205.071 287.793 202.545 287.78C196.363 287.747 190.181 287.697 183.998 287.634C183.926 288.528 183.926 288.528 183.852 289.441C183.277 295.882 182.233 302.123 180.932 308.454C180.734 309.439 180.535 310.423 180.331 311.438C179.704 314.546 179.07 317.652 178.436 320.759C178.007 322.881 177.577 325.003 177.149 327.126C176.104 332.296 175.053 337.465 173.998 342.634C174.617 342.631 175.236 342.628 175.873 342.625C177.09 342.621 177.09 342.621 178.331 342.617C179.136 342.614 179.94 342.611 180.769 342.608C186.24 342.671 190.574 343.488 194.873 346.946C198.377 351.377 200.405 354.335 200.223 360.095C200.182 361.679 200.182 361.679 200.14 363.295C200.093 364.397 200.047 365.499 199.998 366.634C199.961 367.708 199.923 368.782 199.884 369.888C199.749 373.345 199.585 376.8 199.413 380.255C199.351 381.517 199.289 382.778 199.225 384.078C199.094 386.73 198.961 389.381 198.827 392.032C198.656 395.391 198.495 398.751 198.336 402.11C198.18 405.367 198.014 408.623 197.85 411.88C197.795 413.066 197.739 414.252 197.682 415.473C196.513 437.754 196.513 437.754 192.561 441.884C187.629 445.252 182.778 445.121 176.998 444.634C172.129 442.98 168.339 440.282 165.998 435.634C165.3 431.21 165.439 426.852 165.561 422.384C165.587 420.442 165.587 420.442 165.614 418.461C165.868 402.834 166.917 387.222 167.998 371.634C167.347 371.651 166.695 371.669 166.023 371.687C158.806 371.794 151.889 371.135 144.748 370.134C135.407 368.842 135.407 368.842 125.998 368.634C125.658 369.603 125.318 370.573 124.967 371.571C121.348 381.666 117.037 391.173 111.998 400.634C111.687 401.229 111.375 401.824 111.054 402.438C98.7841 425.718 79.9932 449.421 54.9985 459.634C50.6073 460.688 47.1649 459.944 43.186 457.884C39.2362 455.096 37.5148 453.183 35.9985 448.634C35.3192 444.288 35.0595 440.357 37.2094 436.411C40.9525 431.851 45.2989 429.053 50.3891 426.177C71.2298 413.853 84.4876 388.722 93.1235 366.759C93.4433 365.986 93.7632 365.214 94.0927 364.418C95.994 359.332 96.0272 356.105 94.5668 350.902C93.6012 347.048 93.6593 343.212 93.686 339.259C93.6887 338.43 93.6915 337.602 93.6943 336.748C93.8035 330.329 94.8384 324.692 96.9985 318.634C97.4039 317.241 97.801 315.845 98.186 314.446C98.4541 313.518 98.7222 312.59 98.9985 311.634C93.8461 315.344 88.9875 319.3 84.186 323.446C58.0682 345.997 58.0682 345.997 49.0571 345.849C44.4887 345.372 41.6973 343.408 38.686 340.071C36.4968 336.909 35.826 335.183 35.7485 331.384C35.7098 330.262 35.7098 330.262 35.6704 329.118C36.4491 323.222 39.6622 319.622 43.9985 315.821C44.9808 314.958 45.963 314.094 46.975 313.204C50.6497 310.08 54.3636 307.012 58.1157 303.981C61.2786 301.406 64.3917 298.777 67.4985 296.134C72.3478 292.012 77.2501 287.964 82.186 283.946C85.3165 281.372 88.41 278.758 91.4985 276.134C114.609 256.527 114.609 256.527 122.785 256.487Z" fill="#EE0707"/>
<path d="M283.497 382.272C284.756 382.269 286.016 382.267 287.314 382.264C290.798 382.257 294.283 382.269 297.767 382.284C301.529 382.297 305.291 382.293 309.053 382.291C315.567 382.289 322.081 382.298 328.595 382.315C338.013 382.34 347.431 382.347 356.85 382.351C372.131 382.358 387.412 382.378 402.693 382.406C417.535 382.434 432.378 382.455 447.22 382.468C448.135 382.468 449.05 382.469 449.993 382.47C454.584 382.474 459.176 382.478 463.767 382.481C501.845 382.513 539.922 382.565 578 382.632C577.421 385.885 576.649 388.795 575.371 391.839C575.058 392.59 574.746 393.341 574.424 394.115C574.098 394.884 573.773 395.653 573.438 396.445C572.943 397.627 572.943 397.627 572.439 398.834C571.63 400.768 570.816 402.701 570 404.632C569.376 404.634 568.752 404.636 568.11 404.638C531.175 404.741 494.241 404.849 457.307 404.964C452.877 404.977 448.447 404.991 444.017 405.005C442.694 405.009 442.694 405.009 441.345 405.013C427.045 405.057 412.745 405.098 398.445 405.137C383.783 405.177 369.121 405.222 354.459 405.269C345.404 405.299 336.349 405.325 327.295 405.348C321.094 405.363 314.894 405.383 308.693 405.405C305.111 405.418 301.528 405.429 297.945 405.436C294.07 405.443 290.195 405.458 286.32 405.474C285.175 405.475 284.03 405.476 282.85 405.477C281.306 405.485 281.306 405.485 279.73 405.494C278.834 405.496 277.939 405.499 277.016 405.502C275.003 405.41 275.003 405.41 274 406.632C273.902 408.757 273.875 410.886 273.874 413.013C273.872 413.68 273.87 414.347 273.868 415.034C273.864 416.488 273.862 417.942 273.862 419.396C273.858 422.497 273.837 425.598 273.817 428.699C273.779 434.475 273.747 440.25 273.75 446.026C273.75 450.041 273.727 454.055 273.688 458.07C273.677 459.594 273.676 461.118 273.683 462.642C273.728 472.453 273.076 480.675 266.478 488.418C259.401 495.17 250.513 497.233 241.012 497.187C240.059 497.199 239.105 497.21 238.123 497.221C234.954 497.253 231.787 497.257 228.619 497.261C226.336 497.278 224.054 497.296 221.772 497.316C215.592 497.364 209.413 497.386 203.233 497.4C199.37 497.41 195.506 497.424 191.643 497.44C180.931 497.484 170.219 497.521 159.507 497.531C158.823 497.532 158.139 497.532 157.434 497.533C156.048 497.534 154.662 497.535 153.276 497.537C152.244 497.537 152.244 497.537 151.192 497.538C150.158 497.539 150.158 497.539 149.104 497.54C137.933 497.552 126.763 497.614 115.592 497.698C104.103 497.783 92.6144 497.827 81.1248 497.83C74.6815 497.833 68.2395 497.854 61.7966 497.918C55.7392 497.977 49.6841 497.983 43.6266 497.95C41.4066 497.946 39.1864 497.962 36.9667 497.998C19.3148 498.264 19.3148 498.264 14.7328 494.217C12.4429 491.454 10.7084 488.778 9 485.632C8.08242 484.459 7.138 483.304 6.15234 482.187C5.42145 481.303 4.69055 480.419 3.9375 479.507C3.1834 478.597 2.4293 477.687 1.65234 476.75C0 474.632 0 474.632 0 473.632C82.5 473.302 165 472.972 250 472.632C250.495 437.982 250.495 437.982 251 402.632C255.646 393.34 259.243 387.239 268.755 383.273C273.547 381.906 278.554 382.235 283.497 382.272Z" fill="#EE0909"/>
<path d="M2203.15 110.989C2207.13 113.863 2210.64 117.06 2214 120.629C2214.33 116.999 2214.66 113.369 2215 109.629C2231.5 109.629 2248 109.629 2265 109.629C2265 119.529 2265 129.429 2265 139.629C2262.36 139.629 2259.72 139.629 2257 139.629C2257.01 140.546 2257.02 141.462 2257.03 142.407C2257.13 151.114 2257.21 159.82 2257.26 168.528C2257.28 173.003 2257.32 177.477 2257.38 181.951C2257.43 186.283 2257.46 190.614 2257.47 194.945C2257.48 196.584 2257.5 198.224 2257.53 199.863C2257.78 215.626 2255.21 230.043 2244.55 242.289C2233.85 252.803 2217.35 255.025 2203.06 254.942C2202.07 254.938 2201.09 254.935 2200.07 254.931C2186.19 254.73 2173.4 252.285 2160 248.629C2160 238.729 2160 228.829 2160 218.629C2173 219.629 2173 219.629 2178 220.629C2182.27 220.896 2186.54 220.906 2190.81 220.942C2191.96 220.971 2193.11 221 2194.3 221.03C2200.89 221.079 2206.71 220.966 2212 216.629C2214.21 213.093 2214.22 209.925 2214.12 205.817C2214.11 204.841 2214.09 203.865 2214.07 202.86C2214.05 202.124 2214.02 201.388 2214 200.629C2213.48 201.149 2212.95 201.668 2212.42 202.203C2203.78 210.389 2195.88 214.396 2183.85 214.149C2174.49 213.648 2167.82 210.441 2161.04 204.047C2157.4 199.735 2155.17 194.801 2153 189.629C2152.67 188.85 2152.34 188.071 2151.99 187.268C2148.87 178.998 2148.7 170.301 2148.81 161.567C2148.81 160.555 2148.81 159.544 2148.81 158.502C2148.9 142.764 2151.03 127.896 2161.78 115.594C2172.66 105.109 2190.23 102.828 2203.15 110.989Z" fill="#FF4237"/>
<path d="M1018 110.631C1021.99 113.304 1025.61 116.237 1029 119.631C1029.33 116.331 1029.66 113.031 1030 109.631C1046.5 109.631 1063 109.631 1080 109.631C1080 119.531 1080 129.431 1080 139.631C1077.36 139.631 1074.72 139.631 1072 139.631C1072.01 140.563 1072.01 141.495 1072.01 142.455C1072.06 151.268 1072.08 160.08 1072.1 168.892C1072.11 173.422 1072.13 177.951 1072.15 182.481C1072.17 186.858 1072.19 191.234 1072.19 195.611C1072.19 197.275 1072.2 198.94 1072.21 200.604C1072.26 208.84 1072.31 216.646 1070 224.631C1069.75 225.527 1069.5 226.422 1069.25 227.346C1065.45 237.776 1058.51 244.725 1048.49 249.425C1025.59 259.345 999.238 254.968 976.001 248.631C976.001 238.731 976.001 228.831 976.001 218.631C979.239 218.961 982.477 219.291 985.813 219.631C993.31 220.333 1000.78 220.864 1008.31 220.943C1009.06 220.961 1009.8 220.978 1010.57 220.996C1016.8 220.99 1023.21 220.037 1028.05 215.865C1029.36 212.775 1029.29 210.223 1029.19 206.881C1029.16 205.71 1029.13 204.54 1029.11 203.334C1029.07 202.442 1029.04 201.55 1029 200.631C1028.43 201.162 1027.86 201.693 1027.28 202.24C1017.48 211.207 1010.28 214.151 997.059 213.908C989.502 213.556 983.095 210.615 977.591 205.447C966.87 193.199 964.791 178.551 964.706 162.903C964.694 161.446 964.674 159.989 964.644 158.532C964.312 142.234 966.935 127.24 978.313 114.756C989.054 104.636 1005.31 104.096 1018 110.631Z" fill="#FF4237"/>
<path d="M622 68.6283C633.736 68.5376 645.472 68.4644 657.209 68.4211C662.66 68.4003 668.111 68.3722 673.562 68.3266C678.833 68.2828 684.104 68.2591 689.376 68.2488C691.376 68.2415 693.376 68.2272 695.376 68.2054C711.959 68.0322 727.928 68.9026 741.023 80.4057C745.906 85.4425 748.006 90.9914 750 97.6283C750.33 98.6183 750.66 99.6083 751 100.628C752.194 114.668 751.42 129.912 742.574 141.496C737.919 146.673 732.392 149.111 726 151.628C725.25 151.983 724.5 152.337 723.727 152.703C715.25 155.581 705.761 154.747 696.938 154.691C695.581 154.686 694.225 154.681 692.869 154.677C689.579 154.665 686.29 154.648 683 154.628C683 163.208 683 171.788 683 180.628C688.61 180.628 694.22 180.628 700 180.628C700 190.858 700 201.088 700 211.628C674.26 211.628 648.52 211.628 622 211.628C622 201.398 622 191.168 622 180.628C624.97 180.628 627.94 180.628 631 180.628C631 153.568 631 126.508 631 98.6283C628.03 98.6283 625.06 98.6283 622 98.6283C622 88.7283 622 78.8283 622 68.6283Z" fill="#FF4338"/>
<path d="M1832 68.6328C1848.83 68.6328 1865.66 68.6328 1883 68.6328C1883.33 86.1228 1883.66 103.613 1884 121.633C1886.64 118.993 1889.28 116.353 1892 113.633C1895.27 111.574 1895.27 111.574 1898.25 110.195C1899.25 109.722 1900.24 109.249 1901.27 108.762C1909.64 105.305 1920.45 105.103 1928.91 108.465C1937.57 113.299 1942.25 119.791 1945.03 129.082C1946.32 134.283 1946.25 139.365 1946.2 144.695C1946.19 145.727 1946.19 146.759 1946.19 147.822C1946.18 151.093 1946.15 154.363 1946.12 157.633C1946.11 159.861 1946.11 162.089 1946.1 164.316C1946.08 169.755 1946.04 175.194 1946 180.633C1948.64 180.633 1951.28 180.633 1954 180.633C1954 190.863 1954 201.093 1954 211.633C1934.86 211.633 1915.72 211.633 1896 211.633C1896 201.733 1896 191.833 1896 181.633C1898.64 181.633 1901.28 181.633 1904 181.633C1903.91 176.882 1903.8 172.131 1903.68 167.381C1903.64 165.766 1903.61 164.151 1903.58 162.536C1903.53 160.21 1903.47 157.884 1903.41 155.559C1903.4 154.841 1903.39 154.123 1903.38 153.383C1903.26 149.403 1902.92 146.155 1901 142.633C1897.81 140.509 1896.76 140.313 1893.06 140.258C1892.21 140.229 1891.35 140.201 1890.47 140.172C1887.06 140.808 1886.1 141.865 1884 144.633C1883.58 147.51 1883.4 150.02 1883.39 152.898C1883.37 153.692 1883.36 154.485 1883.34 155.303C1883.29 157.829 1883.27 160.356 1883.25 162.883C1883.22 164.599 1883.19 166.315 1883.16 168.031C1883.09 172.232 1883.04 176.432 1883 180.633C1885.31 180.633 1887.62 180.633 1890 180.633C1890 190.863 1890 201.093 1890 211.633C1882.59 211.654 1875.18 211.674 1867.78 211.685C1864.33 211.69 1860.88 211.697 1857.43 211.708C1853.47 211.721 1849.52 211.726 1845.57 211.73C1843.7 211.738 1843.7 211.738 1841.8 211.746C1840.09 211.746 1840.09 211.746 1838.35 211.746C1837.34 211.749 1836.33 211.751 1835.28 211.753C1833 211.633 1833 211.633 1832 210.633C1831.9 208.499 1831.87 206.362 1831.87 204.227C1831.87 202.926 1831.86 201.625 1831.86 200.285C1831.87 199.604 1831.87 198.924 1831.87 198.222C1831.87 196.142 1831.87 194.061 1831.86 191.98C1831.86 190.68 1831.87 189.379 1831.87 188.039C1831.87 186.836 1831.87 185.632 1831.87 184.393C1832 181.633 1832 181.633 1833 180.633C1835.31 180.633 1837.62 180.633 1840 180.633C1840 153.573 1840 126.513 1840 98.6328C1837.36 98.6328 1834.72 98.6328 1832 98.6328C1832 88.7328 1832 78.8328 1832 68.6328Z" fill="#FF4439"/>
<path d="M2125.1 111.986C2132.66 117.971 2135.78 126.267 2137 135.631C2137.49 143.367 2137.28 151.134 2137.19 158.881C2137.17 160.994 2137.16 163.107 2137.15 165.221C2137.11 170.357 2137.06 175.494 2137 180.631C2139.64 180.631 2142.28 180.631 2145 180.631C2145 190.861 2145 201.091 2145 211.631C2125.86 211.631 2106.72 211.631 2087 211.631C2087 201.401 2087 191.171 2087 180.631C2089.31 180.631 2091.62 180.631 2094 180.631C2093.96 175.576 2093.89 170.523 2093.79 165.47C2093.76 163.751 2093.74 162.032 2093.73 160.313C2093.71 157.84 2093.66 155.369 2093.61 152.896C2093.61 152.129 2093.61 151.363 2093.61 150.573C2093.51 147.031 2093.28 145.005 2091.11 142.145C2088.55 140.306 2087.14 140.121 2084 140.193C2083.15 140.194 2082.31 140.196 2081.44 140.197C2078.52 140.715 2077.14 141.605 2075 143.631C2073.78 147.3 2073.77 150.754 2073.68 154.58C2073.66 155.353 2073.64 156.125 2073.62 156.921C2073.56 159.387 2073.5 161.852 2073.44 164.318C2073.39 165.991 2073.35 167.663 2073.31 169.336C2073.2 173.434 2073.1 177.532 2073 181.631C2075.64 181.631 2078.28 181.631 2081 181.631C2081 191.531 2081 201.431 2081 211.631C2061.86 211.631 2042.72 211.631 2023 211.631C2023 201.401 2023 191.171 2023 180.631C2025.64 180.631 2028.28 180.631 2031 180.631C2031 167.101 2031 153.571 2031 139.631C2028.36 139.631 2025.72 139.631 2023 139.631C2023 129.731 2023 119.831 2023 109.631C2039.5 109.631 2056 109.631 2073 109.631C2073.5 116.066 2073.5 116.066 2074 122.631C2074.6 121.785 2075.2 120.939 2075.81 120.068C2087.83 105.705 2109.3 101.779 2125.1 111.986Z" fill="#FF4338"/>
<path d="M1595.6 118.703C1605.48 127.933 1610.48 139.604 1611.11 152.995C1611.53 171.355 1609.97 186.224 1596.87 200.195C1584.98 211.754 1568.5 213.921 1552.56 213.949C1540.25 213.758 1529.05 210.991 1519 203.632C1517.39 202.488 1517.39 202.488 1515.75 201.32C1509.47 195.184 1505.78 187.89 1503 179.632C1502.64 178.618 1502.28 177.603 1501.91 176.558C1500.48 171.444 1500.66 166.216 1500.69 160.945C1500.69 159.872 1500.7 158.799 1500.7 157.694C1500.92 143.475 1504.23 131.608 1514 120.882C1534.92 101.131 1573.61 101.224 1595.6 118.703Z" fill="#FF4237"/>
<path d="M1705.06 116.695C1714.26 125.858 1716.24 136.308 1716.29 148.894C1716.29 152.703 1716.24 156.511 1716.19 160.32C1716.17 162.293 1716.16 164.267 1716.15 166.24C1716.11 171.038 1716.06 175.835 1716 180.633C1718.64 180.633 1721.28 180.633 1724 180.633C1724 190.863 1724 201.093 1724 211.633C1717.18 211.655 1710.37 211.675 1703.55 211.687C1701.23 211.693 1698.91 211.699 1696.58 211.708C1693.26 211.72 1689.93 211.726 1686.6 211.73C1685.03 211.738 1685.03 211.738 1683.43 211.746C1682.47 211.746 1681.51 211.746 1680.52 211.746C1679.67 211.748 1678.82 211.751 1677.94 211.753C1676 211.633 1676 211.633 1675 210.633C1674.77 209.118 1674.59 207.595 1674.44 206.07C1674.35 205.244 1674.27 204.417 1674.18 203.566C1674.12 202.928 1674.06 202.29 1674 201.633C1673.53 202.091 1673.06 202.55 1672.57 203.023C1663.18 211.734 1654.16 214.038 1641.51 213.906C1633.95 213.316 1628.19 209.814 1622.73 204.66C1617.07 198.024 1616.34 190.443 1616.62 181.965C1617.58 173.569 1621.83 167.26 1628 161.633C1639.2 152.956 1653.53 150.427 1667.38 150.57C1668.62 150.577 1668.62 150.577 1669.9 150.584C1671.93 150.595 1673.97 150.613 1676 150.633C1674.28 145.207 1674.28 145.207 1669.94 141.718C1665.37 140.156 1660.78 140.183 1656 140.258C1654.62 140.268 1654.62 140.268 1653.21 140.28C1645.19 140.44 1637.77 141.642 1630 143.633C1627.36 144.293 1624.72 144.953 1622 145.633C1622 134.413 1622 123.193 1622 111.633C1646.79 105.436 1683.39 99.1782 1705.06 116.695Z" fill="#FF4338"/>
<path d="M2578 115.63C2585.11 122.131 2589.61 129.128 2590.12 138.939C2590.12 139.728 2590.12 140.516 2590.12 141.328C2590.12 142.679 2590.12 142.679 2590.12 144.057C2590.11 145.016 2590.1 145.974 2590.1 146.962C2590.1 147.953 2590.1 148.945 2590.1 149.967C2590.09 153.125 2590.08 156.284 2590.06 159.442C2590.06 161.587 2590.05 163.733 2590.05 165.878C2590.04 171.128 2590.02 176.379 2590 181.63C2592.97 181.63 2595.94 181.63 2599 181.63C2599.03 185.741 2599.04 189.853 2599.06 193.965C2599.06 195.365 2599.07 196.764 2599.08 198.164C2599.09 200.172 2599.09 202.18 2599.1 204.188C2599.1 205.398 2599.11 206.608 2599.12 207.854C2599 210.63 2599 210.63 2598 211.63C2596.5 211.723 2594.99 211.747 2593.48 211.743C2592.04 211.743 2592.04 211.743 2590.57 211.743C2589.53 211.738 2588.48 211.733 2587.4 211.727C2586.34 211.726 2585.28 211.725 2584.18 211.723C2580.77 211.717 2577.35 211.705 2573.94 211.692C2571.63 211.687 2569.32 211.683 2567.02 211.679C2561.34 211.667 2555.67 211.65 2550 211.63C2549.67 208 2549.34 204.37 2549 200.63C2548.09 201.661 2547.19 202.692 2546.25 203.755C2539.24 210.627 2531.61 214.181 2521.81 214.192C2512.92 213.952 2504.45 212.145 2498 205.63C2491.88 196.911 2491.02 188.125 2492 177.63C2494.43 169.339 2500.08 162.682 2507.37 158.165C2520.86 151.428 2535.16 149.961 2550 150.63C2549.04 145.412 2549.04 145.412 2545.47 141.712C2541.03 140.328 2537.12 140.221 2532.5 140.317C2531.62 140.328 2530.74 140.338 2529.83 140.349C2519.87 140.549 2510.14 141.426 2500.77 145.044C2499 145.63 2499 145.63 2496 145.63C2496 134.74 2496 123.85 2496 112.63C2500.07 110.598 2503.71 109.802 2508.13 109.067C2508.84 108.941 2509.54 108.816 2510.28 108.686C2531.27 105.081 2559.95 102.116 2578 115.63Z" fill="#FF4338"/>
<path d="M1173.38 116.694C1179.13 122.148 1183.68 130.803 1184.12 138.82C1184.12 139.611 1184.12 140.402 1184.11 141.216C1184.11 142.567 1184.11 142.567 1184.11 143.945C1184.11 144.909 1184.1 145.873 1184.1 146.865C1184.1 147.859 1184.1 148.852 1184.09 149.875C1184.09 153.044 1184.08 156.212 1184.06 159.381C1184.06 161.531 1184.05 163.681 1184.05 165.83C1184.04 171.097 1184.02 176.364 1184 181.631C1186.64 181.631 1189.28 181.631 1192 181.631C1192 191.531 1192 201.431 1192 211.631C1176.16 211.631 1160.32 211.631 1144 211.631C1143.67 208.001 1143.34 204.371 1143 200.631C1142.03 201.683 1141.06 202.735 1140.06 203.819C1131.86 212.036 1123.76 213.918 1112.51 213.95C1106.58 213.852 1102.01 212.955 1097 209.631C1095.39 208.579 1095.39 208.579 1093.75 207.506C1086.77 200.209 1085.26 193.088 1085.41 183.252C1085.83 174.682 1088.45 168.769 1094.69 162.819C1108.9 151.625 1126.49 149.833 1144 150.631C1142.26 145.411 1142.26 145.411 1138.38 141.713C1134.11 140.346 1130.39 140.221 1125.94 140.319C1125.1 140.329 1124.26 140.34 1123.39 140.351C1111.86 140.594 1101.29 143.026 1090 145.631C1090 134.411 1090 123.191 1090 111.631C1094.92 110.672 1094.92 110.672 1099.94 109.694C1100.95 109.494 1101.97 109.294 1103.01 109.088C1124.99 104.855 1154.61 102.094 1173.38 116.694Z" fill="#FF4338"/>
<path d="M941.126 116.758C947.752 122.642 951.534 131.257 952.175 140.006C952.231 142.613 952.226 145.213 952.196 147.82C952.194 148.763 952.191 149.706 952.188 150.678C952.177 153.663 952.152 156.648 952.126 159.633C952.116 161.668 952.107 163.703 952.099 165.738C952.077 170.703 952.042 175.668 952.001 180.633C954.641 180.633 957.281 180.633 960.001 180.633C960.001 190.863 960.001 201.093 960.001 211.633C944.161 211.633 928.321 211.633 912.001 211.633C912.001 207.673 912.001 203.713 912.001 199.633C911.341 199.633 910.681 199.633 910.001 199.633C909.756 200.219 909.511 200.806 909.259 201.41C906.162 206.883 899.37 211.284 893.423 213.199C883.561 214.965 872.332 214.795 863.755 209.156C858.605 205.017 854.786 200.116 853.621 193.461C853.466 191.211 853.445 189.012 853.501 186.758C853.515 185.968 853.53 185.179 853.544 184.366C853.861 175.593 855.666 169.506 862.126 163.32C876.77 151.452 893.876 150.373 912.001 150.633C911.63 149.539 911.259 148.446 910.876 147.32C910.667 146.705 910.458 146.09 910.243 145.457C908.265 142.552 906.293 141.838 903.001 140.633C899.595 140.236 896.239 140.254 892.814 140.32C891.403 140.336 891.403 140.336 889.964 140.352C883.411 140.478 877.396 141.114 871.001 142.633C866.711 143.623 862.421 144.613 858.001 145.633C858.001 134.413 858.001 123.193 858.001 111.633C884.841 105.881 916.899 100.283 941.126 116.758Z" fill="#FF4238"/>
<path d="M2881.33 115.196C2889.88 122.233 2894.52 130.955 2897 141.63C2897 149.88 2897 158.13 2897 166.63C2877.53 166.63 2858.06 166.63 2838 166.63C2839.47 174.113 2839.47 174.113 2844 178.63C2856.9 185.083 2880.69 178.857 2894 175.63C2894 185.2 2894 194.77 2894 204.63C2874.89 214.186 2847.91 218.133 2827.12 211.567C2813.53 206.512 2804.26 199.151 2798.04 186.024C2797.53 184.839 2797.53 184.839 2797 183.63C2796.47 182.429 2796.47 182.429 2795.92 181.204C2791.09 167.749 2791.75 147.315 2797.51 134.302C2799.69 130.381 2801.96 126.934 2805 123.63C2805.82 122.71 2805.82 122.71 2806.66 121.771C2813.04 114.981 2820.04 111.047 2829 108.63C2829.71 108.424 2830.42 108.217 2831.16 108.005C2847.43 103.987 2867.26 105.733 2881.33 115.196Z" fill="#FF4237"/>
<path d="M137.999 66.6294C144.428 71.2073 148.524 76.5741 151.999 83.6294C152.628 83.5714 153.257 83.5134 153.905 83.4536C160.706 83.0952 164.761 84.263 169.999 88.6294C174.469 92.7555 174.746 96.8262 174.999 102.629C175.989 102.299 176.979 101.969 177.999 101.629C185.019 100.927 190.561 102.936 196.057 107.243C201.642 112.479 203.059 116.903 203.374 124.504C203.236 131.063 201.851 135.459 197.456 140.344C190.954 146.429 183.805 148.085 175.155 148.018C173.888 148.025 173.888 148.025 172.595 148.034C169.824 148.047 167.054 148.038 164.284 148.028C162.344 148.03 160.404 148.033 158.464 148.037C154.407 148.041 150.349 148.035 146.292 148.021C141.109 148.003 135.927 148.013 130.745 148.031C126.741 148.042 122.737 148.039 118.733 148.031C116.823 148.029 114.913 148.031 113.003 148.038C110.326 148.046 107.649 148.034 104.972 148.018C104.194 148.024 103.416 148.03 102.614 148.036C95.3693 147.953 87.8036 146.361 82.3503 141.258C77.3761 135.263 75.1682 129.006 75.5847 121.235C76.6662 114.429 79.9113 110.02 85.2683 105.817C89.171 103.139 92.2969 102.361 96.9987 102.629C96.5037 101.206 96.5037 101.206 95.9987 99.7544C93.5953 91.0986 94.7503 83.4909 98.9987 75.6294C103.011 69.3617 108.867 65.2154 115.983 63.0161C123.949 61.4878 130.932 62.6918 137.999 66.6294Z" fill="#EE0808"/>
<path d="M2422 117.631C2422 129.841 2422 142.051 2422 154.631C2411.44 154.631 2400.88 154.631 2390 154.631C2389.51 150.176 2389.51 150.176 2389 145.631C2387.25 142.381 2387.25 142.381 2384 140.631C2380.54 139.953 2377.42 139.687 2374 140.631C2371.41 143.258 2370.12 144.924 2369.52 148.598C2369.52 149.671 2369.53 150.744 2369.54 151.849C2369.55 153.619 2369.55 153.619 2369.55 155.424C2369.58 156.647 2369.6 157.87 2369.63 159.131C2369.63 160.966 2369.63 160.966 2369.63 162.838C2369.5 170.525 2369.5 170.525 2372 177.631C2375.64 179.727 2378.91 179.887 2383.05 179.896C2384.8 179.902 2384.8 179.902 2386.59 179.908C2387.82 179.899 2389.05 179.89 2390.31 179.881C2391.57 179.877 2392.82 179.873 2394.11 179.869C2403.25 179.784 2411.98 179.075 2421 177.631C2421 187.201 2421 196.771 2421 206.631C2399.09 214.599 2373 218.464 2351 208.631C2347.41 206.899 2344.2 205.01 2341 202.631C2340.38 202.177 2339.76 201.723 2339.12 201.256C2331.53 194.732 2325.56 182.298 2324.18 172.435C2323.04 154.344 2323.74 136.456 2336.26 122.029C2360.98 98.2651 2393.95 105.356 2422 117.631Z" fill="#FF4338"/>
<path d="M1495 117.631C1495 129.841 1495 142.051 1495 154.631C1484.77 154.631 1474.54 154.631 1464 154.631C1463.01 149.186 1463.01 149.186 1462 143.631C1458.62 140.253 1458.08 140.2 1453.56 140.194C1452.61 140.174 1451.67 140.155 1450.69 140.135C1447.19 140.781 1446.19 141.852 1444 144.631C1443.4 147.636 1443.4 147.636 1443.5 150.971C1443.5 152.199 1443.5 153.427 1443.5 154.692C1443.53 156.611 1443.53 156.611 1443.56 158.569C1443.55 159.844 1443.55 161.12 1443.54 162.434C1443.41 170.567 1443.41 170.567 1447 177.631C1449.97 179.686 1452.41 179.879 1455.97 179.862C1456.94 179.861 1457.92 179.859 1458.92 179.858C1459.96 179.845 1460.99 179.832 1462.06 179.819C1463.12 179.812 1464.18 179.806 1465.27 179.799C1474.87 179.707 1484.42 179.23 1494 178.631C1494 187.871 1494 197.111 1494 206.631C1475.28 214.118 1448.44 218.46 1429 210.631C1415.63 204.774 1407.77 197.251 1401.41 184.256C1398.39 176.494 1397.64 169.172 1397.69 160.881C1397.69 159.914 1397.7 158.947 1397.7 157.95C1397.94 144.082 1401 131.806 1410.62 121.381C1434.75 99.1675 1468.19 104.226 1495 117.631Z" fill="#FF4237"/>
<path d="M1826 117.629C1826 129.839 1826 142.049 1826 154.629C1815.77 154.629 1805.54 154.629 1795 154.629C1794.51 150.174 1794.51 150.174 1794 145.629C1792.25 142.379 1792.25 142.379 1789 140.629C1785.54 139.952 1782.41 139.686 1779 140.629C1775.37 144.314 1774.5 146.72 1774.5 151.848C1774.5 153.027 1774.5 154.207 1774.5 155.422C1774.53 157.257 1774.53 157.257 1774.56 159.129C1774.56 160.352 1774.55 161.576 1774.54 162.836C1774.46 170.754 1774.46 170.754 1778 177.629C1781.21 179.928 1784.11 179.875 1787.99 179.86C1789.16 179.858 1790.34 179.857 1791.55 179.856C1792.79 179.843 1794.03 179.83 1795.31 179.817C1796.57 179.81 1797.83 179.804 1799.13 179.797C1807.8 179.726 1816.36 179.38 1825 178.629C1825 187.869 1825 197.109 1825 206.629C1802.06 214.275 1775.87 218.68 1753.31 207.504C1741.54 200.771 1734.14 191.267 1730.13 178.317C1726.39 161.288 1727.76 142.136 1737.12 127.285C1745.24 115.803 1757.17 109.897 1770.76 107.051C1790.93 104.423 1807.9 108.581 1826 117.629Z" fill="#FF4237"/>
<path d="M2782 113.632C2783 114.632 2783 114.632 2783.12 117.041C2783.11 118.604 2783.11 118.604 2783.1 120.199C2783.1 121.211 2783.09 122.224 2783.09 123.267C2783.08 124.563 2783.07 125.859 2783.06 127.195C2783.04 131.299 2783.02 135.404 2783 139.632C2773.76 139.632 2764.52 139.632 2755 139.632C2754.34 137.652 2753.68 135.672 2753 133.632C2750.1 131.449 2747.44 131.361 2743.88 131.382C2743.01 131.377 2742.14 131.372 2741.24 131.367C2738.8 131.422 2738.8 131.422 2737 133.632C2737.32 137.229 2737.32 137.229 2738 140.632C2745.15 143.54 2752.32 145.123 2759.87 146.65C2769.31 148.669 2777.83 151.955 2783.7 159.953C2789.03 168.882 2789.6 178.521 2788 188.632C2784.96 198.683 2779.29 204.377 2770.38 209.382C2748.89 219.325 2720.41 213.767 2699 206.632C2699 197.722 2699 188.812 2699 179.632C2708.9 179.632 2718.8 179.632 2729 179.632C2729.99 183.097 2729.99 183.097 2731 186.632C2734.37 188.879 2735.56 188.878 2739.5 188.82C2740.46 188.813 2741.42 188.807 2742.41 188.8C2745.12 188.735 2745.12 188.735 2748 187.632C2749.17 183.091 2749.17 183.091 2747.94 178.82C2743.35 176.004 2738.15 175.242 2732.92 174.34C2721.74 172.376 2711.38 169.889 2704.15 160.421C2698.9 152.218 2698.15 143.135 2699 133.632C2701.25 124.559 2705.98 118.335 2713.81 113.382C2734.35 101.804 2760.91 105.303 2782 113.632Z" fill="#FF4338"/>
<path d="M2986 114.63C2986.34 117.152 2986.34 117.152 2986.29 120.294C2986.28 121.81 2986.28 121.81 2986.27 123.355C2986.24 124.642 2986.22 125.929 2986.19 127.255C2986.1 133.381 2986.1 133.381 2986 139.63C2976.76 139.63 2967.52 139.63 2958 139.63C2957.34 137.65 2956.68 135.67 2956 133.63C2953.22 131.574 2950.78 131.358 2947.38 131.38C2946.21 131.373 2946.21 131.373 2945.02 131.365C2942.77 131.451 2942.77 131.451 2941 133.63C2940.42 136.588 2940.42 136.588 2941 139.63C2944.33 142.088 2947.31 143.114 2951.35 143.806C2952.36 143.991 2953.38 144.175 2954.42 144.366C2956.01 144.651 2956.01 144.651 2957.63 144.943C2970.93 147.553 2981.05 151.002 2989 162.63C2993.65 170.878 2993.4 182.484 2991.06 191.443C2987.33 200.605 2979.86 206.33 2971.19 210.474C2962.87 213.492 2955.07 213.954 2946.25 213.88C2945.09 213.873 2943.94 213.867 2942.74 213.86C2929.78 213.703 2914.82 212.537 2903 206.63C2903 197.72 2903 188.81 2903 179.63C2912.57 179.63 2922.14 179.63 2932 179.63C2932.99 181.94 2933.98 184.25 2935 186.63C2938.01 188.959 2940.9 188.9 2944.63 188.88C2945.59 188.885 2946.55 188.891 2947.54 188.896C2950.18 188.871 2950.18 188.871 2952 186.63C2952.58 183.173 2952.58 183.173 2952 179.63C2947.74 176.079 2942.61 175.607 2937.31 174.693C2925.45 172.448 2916.31 169.959 2908 160.63C2902.18 152.046 2902.11 141.684 2903 131.63C2905.45 122.72 2911.82 116.602 2919.68 112.095C2938.14 103.139 2968.64 103.057 2986 114.63Z" fill="#FF4237"/>
<path d="M2675 109.633C2676 109.896 2677 110.159 2678.04 110.43C2681.84 111.504 2684.68 112.422 2688 114.633C2688.34 117.155 2688.34 117.155 2688.29 120.297C2688.28 121.813 2688.28 121.813 2688.27 123.359C2688.24 124.645 2688.22 125.932 2688.19 127.258C2688.1 133.384 2688.1 133.384 2688 139.633C2678.76 139.633 2669.52 139.633 2660 139.633C2659.01 137.323 2658.02 135.013 2657 132.633C2652.47 131.124 2647.94 130.859 2643.5 132.633C2643.01 132.963 2642.51 133.293 2642 133.633C2642 135.613 2642 137.593 2642 139.633C2649.45 143.344 2656.8 145.088 2664.92 146.7C2673.52 148.507 2680.68 151.316 2687 157.633C2693.53 167.646 2693.95 176.931 2693 188.633C2692.2 192.138 2691.05 194.7 2689 197.633C2688.62 198.239 2688.25 198.845 2687.86 199.469C2682.48 206.913 2673.03 211.392 2664.19 213.071C2661.8 213.324 2659.4 213.5 2657 213.633C2655.75 213.705 2655.75 213.705 2654.47 213.778C2638.24 214.575 2619.82 214.043 2605 206.633C2605 197.723 2605 188.813 2605 179.633C2614.57 179.633 2624.14 179.633 2634 179.633C2634.99 182.273 2635.98 184.913 2637 187.633C2639.6 188.931 2641.54 188.766 2644.44 188.758C2645.41 188.761 2646.37 188.764 2647.37 188.766C2650.11 188.746 2650.11 188.746 2653 187.633C2654.17 183.093 2654.17 183.093 2652.94 178.821C2646.92 175.132 2639.36 174.489 2632.52 173.309C2624.1 171.738 2617.14 168.768 2611 162.633C2604.84 153.57 2602.92 144.522 2604 133.633C2604.95 130.356 2606.29 127.573 2608 124.633C2608.54 123.602 2609.07 122.571 2609.63 121.508C2625.02 102.868 2653.74 104.019 2675 109.633Z" fill="#FF4238"/>
<path d="M1210 87.6328C1222.87 87.6328 1235.74 87.6328 1249 87.6328C1249 94.8928 1249 102.153 1249 109.633C1257.25 109.633 1265.5 109.633 1274 109.633C1274 119.533 1274 129.433 1274 139.633C1265.75 139.633 1257.5 139.633 1249 139.633C1249.1 144.384 1249.2 149.134 1249.32 153.885C1249.36 155.499 1249.39 157.114 1249.42 158.729C1249.47 161.055 1249.53 163.381 1249.59 165.707C1249.6 166.425 1249.61 167.143 1249.62 167.882C1249.74 171.86 1250.12 175.094 1252 178.633C1254.45 179.859 1256.05 179.747 1258.79 179.73C1259.64 179.728 1260.48 179.725 1261.36 179.723C1262.44 179.714 1263.51 179.705 1264.62 179.695C1268.05 179.675 1271.47 179.654 1275 179.633C1275 189.203 1275 198.773 1275 208.633C1272.63 209.272 1270.26 209.912 1267.81 210.57C1266.71 210.87 1266.71 210.87 1265.58 211.176C1250.76 215.147 1232.25 216.227 1218.5 208.32C1209.84 202.191 1206.14 193.351 1204.39 183.211C1203.51 175.161 1203.8 167.033 1203.88 158.945C1203.89 157.068 1203.89 155.191 1203.9 153.314C1203.92 148.754 1203.96 144.193 1204 139.633C1201.36 139.633 1198.72 139.633 1196 139.633C1196 129.733 1196 119.833 1196 109.633C1198.97 108.643 1201.94 107.653 1205 106.633C1210.98 100.656 1209.24 97.5257 1210 87.6328Z" fill="#FF4338"/>
<path d="M2428 68.6328C2444.5 68.6328 2461 68.6328 2478 68.6328C2478 105.593 2478 142.553 2478 180.633C2480.64 180.633 2483.28 180.633 2486 180.633C2486 190.863 2486 201.093 2486 211.633C2466.86 211.633 2447.72 211.633 2428 211.633C2428 201.733 2428 191.833 2428 181.633C2430.64 181.633 2433.28 181.633 2436 181.633C2436 154.243 2436 126.853 2436 98.6328C2433.36 98.6328 2430.72 98.6328 2428 98.6328C2428 88.7328 2428 78.8328 2428 68.6328Z" fill="#FF4237"/>
<path d="M847 108.63C847 120.18 847 131.73 847 143.63C844.69 143.3 842.38 142.97 840 142.63C826.715 141.42 826.715 141.42 815 146.63C810.338 151.15 808.912 154.977 808.684 161.392C808.621 163.069 808.621 163.069 808.557 164.78C808.517 165.948 808.478 167.115 808.438 168.318C808.373 170.086 808.373 170.086 808.307 171.89C808.2 174.803 808.1 177.717 808 180.63C813.28 180.63 818.56 180.63 824 180.63C824 190.86 824 201.09 824 211.63C801.89 211.63 779.78 211.63 757 211.63C757 201.4 757 191.17 757 180.63C759.64 180.63 762.28 180.63 765 180.63C765 167.1 765 153.57 765 139.63C762.36 139.63 759.72 139.63 757 139.63C757 129.73 757 119.83 757 109.63C773.83 109.63 790.66 109.63 808 109.63C808.495 114.58 808.495 114.58 809 119.63C809.779 118.816 809.779 118.816 810.574 117.986C821.435 106.844 831.981 104.339 847 108.63Z" fill="#FF4439"/>
<path d="M1280 109.633C1296.83 109.633 1313.66 109.633 1331 109.633C1331 133.063 1331 156.493 1331 180.633C1333.64 180.633 1336.28 180.633 1339 180.633C1339 190.863 1339 201.093 1339 211.633C1331.46 211.654 1323.92 211.674 1316.38 211.685C1312.87 211.69 1309.36 211.697 1305.85 211.708C1301.83 211.721 1297.81 211.726 1293.78 211.73C1292.52 211.736 1291.26 211.741 1289.95 211.746C1288.79 211.746 1287.63 211.746 1286.44 211.746C1284.89 211.75 1284.89 211.75 1283.32 211.753C1281 211.633 1281 211.633 1280 210.633C1279.91 208.487 1279.89 206.339 1279.9 204.191C1279.9 202.886 1279.91 201.581 1279.91 200.236C1279.92 198.848 1279.93 197.459 1279.94 196.07C1279.94 194.678 1279.95 193.285 1279.95 191.893C1279.96 188.473 1279.98 185.053 1280 181.633C1282.97 181.633 1285.94 181.633 1289 181.633C1289 167.773 1289 153.913 1289 139.633C1286.03 139.633 1283.06 139.633 1280 139.633C1280 129.733 1280 119.833 1280 109.633Z" fill="#FF4439"/>
<path d="M1960 109.633C1976.5 109.633 1993 109.633 2010 109.633C2010 133.063 2010 156.493 2010 180.633C2012.64 180.633 2015.28 180.633 2018 180.633C2018 190.863 2018 201.093 2018 211.633C1998.86 211.633 1979.72 211.633 1960 211.633C1960 201.733 1960 191.833 1960 181.633C1962.64 181.633 1965.28 181.633 1968 181.633C1968 167.773 1968 153.913 1968 139.633C1965.36 139.633 1962.72 139.633 1960 139.633C1960 129.733 1960 119.833 1960 109.633Z" fill="#FF4237"/>
<path d="M277.001 3.6309C280.016 6.36539 282.816 9.18189 285.001 12.6309C285.001 13.6209 285.001 14.6109 285.001 15.6309C285.581 15.5845 286.161 15.5381 286.759 15.4903C292.42 15.2287 295.535 15.8027 300.001 19.6309C302.576 22.2056 302.975 23.188 303.188 26.8809C303.095 28.2422 303.095 28.2422 303.001 29.6309C303.641 29.5845 304.282 29.5381 304.942 29.4903C311.299 29.225 314.894 29.7497 320.001 33.6309C323.48 37.5681 324.805 41.1717 325.161 46.3262C324.83 51.0847 322.766 54.8207 319.466 58.2051C314.863 62.1514 312.321 62.7605 306.351 62.8079C305.668 62.8145 304.985 62.821 304.281 62.8278C302.016 62.8476 299.751 62.8592 297.485 62.8692C296.711 62.8733 295.937 62.8773 295.14 62.8815C291.041 62.9024 286.943 62.9167 282.845 62.9261C278.617 62.9371 274.39 62.9715 270.162 63.0112C266.907 63.0374 263.652 63.0458 260.397 63.0494C258.839 63.0542 257.281 63.0658 255.723 63.0844C253.537 63.1088 251.353 63.1078 249.168 63.1009C247.926 63.1067 246.684 63.1126 245.404 63.1187C240.223 62.3761 236.425 59.6273 233.188 55.5684C230.305 51.6966 229.586 48.6495 229.657 43.8223C230.516 38.3461 233.849 34.5475 238.063 31.1934C240.467 29.9151 242.333 29.0414 245.001 28.6309C244.671 27.6409 244.341 26.6509 244.001 25.6309C243.219 19.1316 244.11 13.9597 248.001 8.6309C255.666 0.509747 266.893 -3.34851 277.001 3.6309Z" fill="#EE0707"/>
<path d="M1433 306.633C1442.9 306.633 1452.8 306.633 1463 306.633C1464.32 310.923 1465.64 315.213 1467 319.633C1468.32 323.437 1469.66 327.226 1471.04 331.008C1471.41 332.021 1471.77 333.034 1472.15 334.077C1472.92 336.192 1473.69 338.306 1474.46 340.419C1475.63 343.652 1476.8 346.886 1477.98 350.121C1478.73 352.188 1479.48 354.254 1480.23 356.32C1480.75 357.763 1480.75 357.763 1481.28 359.234C1481.61 360.133 1481.94 361.031 1482.28 361.957C1482.56 362.742 1482.85 363.526 1483.14 364.335C1483.76 365.984 1484.42 367.617 1485.11 369.238C1486 371.633 1486 371.633 1486 374.633C1486.66 374.633 1487.32 374.633 1488 374.633C1488.39 373.457 1488.78 372.282 1489.19 371.07C1489.47 370.237 1489.75 369.403 1490.03 368.545C1490.7 366.529 1491.36 364.51 1492.02 362.489C1494.34 355.36 1496.83 348.32 1499.52 341.32C1499.97 340.132 1499.97 340.132 1500.44 338.92C1501.69 335.66 1502.95 332.401 1504.22 329.145C1505.16 326.727 1506.09 324.305 1507.02 321.883C1507.44 320.794 1507.44 320.794 1507.88 319.682C1508.14 318.991 1508.41 318.299 1508.68 317.586C1508.91 316.989 1509.14 316.393 1509.38 315.778C1510.24 312.803 1510.56 309.698 1511 306.633C1521.23 306.633 1531.46 306.633 1542 306.633C1542 308.613 1542 310.593 1542 312.633C1539.95 312.861 1537.9 313.089 1535.85 313.316C1533.99 313.452 1533.99 313.452 1533 314.633C1532.91 316.975 1532.87 319.288 1532.89 321.631C1532.89 322.363 1532.89 323.094 1532.89 323.848C1532.89 326.278 1532.89 328.707 1532.9 331.137C1532.9 332.817 1532.91 334.497 1532.91 336.177C1532.91 340.608 1532.92 345.038 1532.93 349.469C1532.94 353.986 1532.95 358.504 1532.95 363.021C1532.96 371.892 1532.98 380.762 1533 389.633C1535.97 389.963 1538.94 390.293 1542 390.633C1542 392.613 1542 394.593 1542 396.633C1531.11 396.633 1520.22 396.633 1509 396.633C1509 394.983 1509 393.333 1509 391.633C1512.96 390.643 1512.96 390.643 1517 389.633C1517 366.533 1517 343.433 1517 319.633C1512.73 330.609 1508.51 341.567 1504.5 352.633C1501.17 361.775 1497.79 370.891 1494.23 379.945C1492.05 385.473 1489.99 391.034 1488 396.633C1485.69 396.633 1483.38 396.633 1481 396.633C1477.16 387.716 1473.77 378.672 1470.52 369.531C1470.01 368.118 1469.5 366.705 1469 365.292C1467.68 361.615 1466.37 357.936 1465.05 354.257C1462.94 348.335 1460.82 342.415 1458.7 336.495C1457.96 334.434 1457.23 332.372 1456.49 330.309C1455.83 328.446 1455.83 328.446 1455.15 326.544C1454.75 325.448 1454.36 324.352 1453.96 323.222C1453.08 320.695 1453.08 320.695 1452 318.633C1452 342.063 1452 365.493 1452 389.633C1455.3 389.963 1458.6 390.293 1462 390.633C1462 392.613 1462 394.593 1462 396.633C1452.43 396.633 1442.86 396.633 1433 396.633C1433 394.653 1433 392.673 1433 390.633C1437.45 390.138 1437.45 390.138 1442 389.633C1442.02 379.871 1442.04 370.11 1442.05 360.348C1442.06 355.816 1442.06 351.284 1442.08 346.752C1442.09 342.382 1442.09 338.011 1442.09 333.641C1442.1 331.97 1442.1 330.299 1442.11 328.628C1442.11 326.296 1442.11 323.964 1442.11 321.631C1442.12 320.933 1442.12 320.236 1442.12 319.517C1442.39 316.296 1442.39 316.296 1441 313.633C1439.65 313.402 1438.3 313.221 1436.94 313.07C1435.64 312.926 1434.34 312.782 1433 312.633C1433 310.653 1433 308.673 1433 306.633Z" fill="#1E422A"/>
<path d="M1727 297.633C1727.33 328.323 1727.66 359.013 1728 390.633C1730.31 390.963 1732.62 391.293 1735 391.633C1735 393.283 1735 394.933 1735 396.633C1728.07 396.633 1721.14 396.633 1714 396.633C1714 394.653 1714 392.673 1714 390.633C1713.34 391.043 1712.67 391.453 1711.99 391.875C1711.1 392.414 1710.22 392.953 1709.31 393.508C1708.44 394.041 1707.57 394.575 1706.68 395.125C1699.68 399.064 1692.51 400.165 1684.65 397.98C1676.78 394.445 1672.14 387.441 1669 379.633C1666.37 370.379 1666.71 357.937 1670.53 349.098C1675.14 341.348 1681.56 334.471 1690.2 331.551C1694.16 330.594 1697.56 330.4 1701.62 330.445C1702.9 330.452 1704.17 330.458 1705.48 330.465C1709 330.633 1709 330.633 1714 331.633C1714 323.713 1714 315.793 1714 307.633C1710.7 307.633 1707.4 307.633 1704 307.633C1704 305.983 1704 304.333 1704 302.633C1706.7 301.789 1709.41 300.958 1712.12 300.133C1712.88 299.894 1713.65 299.656 1714.43 299.41C1715.18 299.185 1715.92 298.959 1716.69 298.727C1717.38 298.517 1718.06 298.308 1718.76 298.092C1721 297.633 1721 297.633 1727 297.633Z" fill="#1F432A"/>
<path d="M2167.38 332.383C2168.6 333.102 2169.81 333.85 2171 334.633C2171.89 335.21 2172.77 335.788 2173.69 336.383C2181.28 343.774 2184.09 353.109 2184.44 363.508C2184.19 373.574 2181.45 383.5 2174 390.633C2164.11 398.064 2155.16 399.302 2143 398.633C2141.35 398.303 2139.7 397.973 2138 397.633C2138 404.893 2138 412.153 2138 419.633C2141.63 419.963 2145.26 420.293 2149 420.633C2149 422.613 2149 424.593 2149 426.633C2138.11 426.633 2127.22 426.633 2116 426.633C2116 424.653 2116 422.673 2116 420.633C2120.45 420.138 2120.45 420.138 2125 419.633C2125 393.893 2125 368.153 2125 341.633C2122.03 341.633 2119.06 341.633 2116 341.633C2116.33 339.983 2116.66 338.333 2117 336.633C2124.24 333.888 2130.23 332.115 2138 332.633C2138.33 334.283 2138.66 335.933 2139 337.633C2140.03 337 2140.03 337 2141.08 336.355C2141.98 335.807 2142.88 335.26 2143.81 334.695C2144.71 334.15 2145.6 333.605 2146.52 333.043C2152.82 329.458 2160.83 329.202 2167.38 332.383Z" fill="#20442C"/>
<path d="M864.375 332.32C871.056 336.212 876.511 342.472 879.117 349.754C881.824 361.645 881.503 375.073 875 385.633C869.524 393.099 862.104 397.091 853 398.633C840.143 399.347 840.143 399.347 835 397.633C835 404.893 835 412.153 835 419.633C838.63 419.963 842.26 420.293 846 420.633C846 422.613 846 424.593 846 426.633C835.11 426.633 824.22 426.633 813 426.633C813 424.653 813 422.673 813 420.633C817.455 420.138 817.455 420.138 822 419.633C822 393.893 822 368.153 822 341.633C819.03 341.633 816.06 341.633 813 341.633C813 339.983 813 338.333 813 336.633C820.534 334.024 826.998 332.09 835 332.633C835.33 334.283 835.66 335.933 836 337.633C837.031 337 837.031 337 838.082 336.355C838.983 335.807 839.884 335.26 840.812 334.695C841.706 334.15 842.599 333.605 843.52 333.043C849.81 329.466 857.81 329.219 864.375 332.32Z" fill="#20432B"/>
<path d="M2349.19 332.103C2354.16 333.844 2358.83 334.175 2364.06 334.317C2364.93 334.352 2365.79 334.386 2366.68 334.421C2368.79 334.502 2370.89 334.568 2373 334.63C2373 336.94 2373 339.25 2373 341.63C2367.06 342.125 2367.06 342.125 2361 342.63C2361.66 343.95 2362.32 345.27 2363 346.63C2363.9 353.769 2363.91 360.15 2359.48 366.052C2352.62 373.36 2343.57 375.061 2334 375.63C2333.67 378.27 2333.34 380.91 2333 383.63C2333.8 383.667 2334.6 383.705 2335.42 383.743C2347.89 384.489 2359.61 385.932 2368.56 395.317C2370.62 400.069 2370.39 403.68 2369 408.63C2365.13 417.168 2358.34 422.033 2349.81 425.442C2340.52 428.337 2329.48 429.736 2320.44 425.505C2315.38 422.577 2311.89 419.289 2310 413.63C2309.5 408.39 2309.35 404.003 2311.62 399.192C2314.21 396.398 2316.67 394.474 2320 392.63C2320.99 392.63 2321.98 392.63 2323 392.63C2322.87 392.073 2322.74 391.516 2322.6 390.942C2321.74 386.139 2321.72 383.358 2324.44 379.192C2325.15 378.235 2325.15 378.235 2325.87 377.259C2327.19 375.686 2327.19 375.686 2327 373.63C2325.37 372.478 2325.37 372.478 2323.31 371.38C2318.71 368.628 2315.44 365.503 2313 360.63C2312.85 358.383 2312.78 356.131 2312.75 353.88C2312.72 352.668 2312.7 351.456 2312.67 350.208C2313.21 344.34 2315.47 340.619 2319.94 336.88C2320.61 336.308 2321.27 335.735 2321.96 335.145C2329.48 329.547 2340.54 328.941 2349.19 332.103Z" fill="#1E422A"/>
<path d="M1341.22 332.111C1346.33 333.913 1351.18 334.179 1356.56 334.318C1357.93 334.369 1357.93 334.369 1359.33 334.421C1361.55 334.503 1363.78 334.572 1366 334.63C1366 336.94 1366 339.25 1366 341.63C1362.04 341.63 1358.08 341.63 1354 341.63C1354.66 343.28 1355.32 344.93 1356 346.63C1356.84 353.534 1357.03 360.149 1352.76 365.911C1347.38 371.171 1341.08 374.428 1333.54 374.728C1331.36 374.695 1329.18 374.663 1327 374.63C1326.67 377.6 1326.34 380.57 1326 383.63C1326.8 383.668 1327.6 383.705 1328.42 383.743C1341.05 384.499 1351.9 386.238 1361.5 394.88C1363.71 398.927 1363.93 402.128 1363 406.63C1358.99 416.35 1352.42 421.318 1343.06 425.505C1333.64 428.88 1322.54 429.768 1313.25 425.505C1308.33 422.553 1304.85 419.178 1303 413.63C1302.47 407.699 1302.41 402.616 1306 397.63C1309.7 394.258 1311.87 392.63 1317 392.63C1316.67 391.97 1316.34 391.31 1316 390.63C1315.28 385.565 1315.45 381.789 1318.5 377.568C1319.33 376.598 1320.15 375.629 1321 374.63C1320.4 374.243 1319.79 373.857 1319.17 373.458C1308.31 366.377 1308.31 366.377 1306 360.63C1305.39 354.76 1304.75 348.012 1307.56 342.63C1316.21 331.982 1327.71 327.151 1341.22 332.111Z" fill="#1E422A"/>
<path d="M435.686 61.3209C444.165 67.4033 449.888 75.3216 451.998 85.6334C452.949 96.0516 450.371 105.327 443.998 113.633C437.721 121.139 429.567 125.964 419.701 126.969C408.211 127.099 399.507 124.555 390.998 116.633C383.18 108.237 380.299 99.36 380.682 87.9615C381.566 78.664 385.496 70.6326 392.518 64.3951C405.895 54.1607 420.963 52.1784 435.686 61.3209Z" fill="#EE0707"/>
<path d="M936.854 333.372C945.205 338.269 950.485 345.257 952.999 354.629C954.432 367.128 953.391 378.834 945.562 389.129C938.623 395.899 931.624 398.778 922.062 399.004C912.542 398.761 904.836 396.524 897.999 389.629C890.101 378.86 888.874 368.605 889.999 355.629C891.708 346.685 897.998 339.074 905.409 333.969C915.055 328.979 927.001 328.698 936.854 333.372Z" fill="#1D4229"/>
<path d="M749.105 331.386C752.518 333.241 754.985 335.313 757 338.632C761.576 336.843 766.017 334.811 770.477 332.753C776.129 330.242 782.06 329.398 788.07 331.28C793.815 334.19 796.03 338.72 798 344.632C798.114 346.181 798.176 347.734 798.205 349.287C798.235 350.698 798.235 350.698 798.266 352.137C798.282 353.15 798.299 354.163 798.316 355.206C798.337 356.245 798.358 357.284 798.379 358.354C798.445 361.676 798.504 364.997 798.562 368.319C798.606 370.57 798.649 372.82 798.693 375.071C798.8 380.591 798.902 386.111 799 391.632C801.64 391.632 804.28 391.632 807 391.632C807 393.282 807 394.932 807 396.632C797.1 396.632 787.2 396.632 777 396.632C777 394.982 777 393.332 777 391.632C778.134 391.487 779.269 391.343 780.438 391.194C783.808 391.02 783.808 391.02 785 389.632C785.126 386.745 785.189 383.883 785.203 380.995C785.209 380.123 785.215 379.251 785.22 378.352C785.23 376.5 785.236 374.648 785.24 372.796C785.25 369.973 785.281 367.151 785.312 364.329C785.319 362.53 785.324 360.731 785.328 358.932C785.347 357.671 785.347 357.671 785.366 356.384C785.347 351.398 784.815 347.928 782 343.632C778.595 341.361 777.312 341.361 773.312 341.382C771.822 341.374 771.822 341.374 770.301 341.366C767.61 341.583 765.382 341.977 762.794 342.648C760.916 343.135 760.916 343.135 759 343.632C759.117 350.165 759.242 356.697 759.372 363.23C759.416 365.454 759.457 367.679 759.497 369.903C759.555 373.093 759.619 376.282 759.684 379.471C759.7 380.473 759.717 381.474 759.734 382.505C759.764 383.886 759.764 383.886 759.795 385.295C759.818 386.518 759.818 386.518 759.842 387.765C759.799 389.646 759.799 389.646 761 390.632C763.328 390.999 765.662 391.334 768 391.632C768 393.282 768 394.932 768 396.632C758.1 396.632 748.2 396.632 738 396.632C738 394.982 738 393.332 738 391.632C739.134 391.487 740.269 391.343 741.438 391.194C744.808 391.02 744.808 391.02 746 389.632C746.126 386.66 746.189 383.714 746.203 380.741C746.212 379.396 746.212 379.396 746.22 378.024C746.23 376.12 746.236 374.217 746.24 372.314C746.25 369.408 746.281 366.502 746.312 363.596C746.319 361.749 746.324 359.901 746.328 358.054C746.34 357.186 746.353 356.318 746.366 355.424C746.348 350.675 746.133 347.458 743 343.632C739.705 341.435 738.646 341.36 734.812 341.382C733.911 341.376 733.01 341.371 732.082 341.366C728.131 341.625 728.131 341.625 721 343.632C721.33 359.142 721.66 374.652 722 390.632C725.465 391.127 725.465 391.127 729 391.632C729 393.282 729 394.932 729 396.632C719.1 396.632 709.2 396.632 699 396.632C699 394.982 699 393.332 699 391.632C701.64 391.302 704.28 390.972 707 390.632C707.33 374.462 707.66 358.292 708 341.632C705.03 341.632 702.06 341.632 699 341.632C699 339.982 699 338.332 699 336.632C713.597 332.039 713.597 332.039 721 332.632C721.33 334.282 721.66 335.932 722 337.632C723.247 336.999 723.247 336.999 724.52 336.354C725.606 335.806 726.693 335.259 727.812 334.694C728.891 334.149 729.97 333.604 731.082 333.042C736.773 330.291 742.997 329.198 749.105 331.386Z" fill="#1B4027"/>
<path d="M166.999 190.63C174.361 195.734 178.179 201.169 180.999 209.63C181.801 220.478 181.126 229.578 174.312 238.442C170.821 242.199 166.612 244.488 161.999 246.63C161.21 246.997 160.421 247.365 159.608 247.743C152.04 250.315 143.445 249.265 136.284 245.958C127.986 241.135 123.053 234.701 119.999 225.63C118.948 214.931 120.126 206.384 126.187 197.38C137.749 186.074 152.325 182.809 166.999 190.63Z" fill="#EE0808"/>
<path d="M622 306.633C643.78 306.633 665.56 306.633 688 306.633C688 313.233 688 319.833 688 326.633C685.03 326.633 682.06 326.633 679 326.633C678.01 322.673 677.02 318.713 676 314.633C661.15 314.138 661.15 314.138 646 313.633C646 324.523 646 335.413 646 346.633C653.26 346.633 660.52 346.633 668 346.633C668.144 344.838 668.289 343.044 668.438 341.195C668.875 335.758 668.875 335.758 670 334.633C672.31 334.633 674.62 334.633 677 334.633C677 344.863 677 355.093 677 365.633C674.36 365.633 671.72 365.633 669 365.633C668.34 362.003 667.68 358.373 667 354.633C660.07 354.303 653.14 353.973 646 353.633C646 365.843 646 378.053 646 390.633C657.55 390.303 669.1 389.973 681 389.633C682.485 382.208 682.485 382.208 684 374.633C686.64 374.633 689.28 374.633 692 374.633C692 381.893 692 389.153 692 396.633C668.9 396.633 645.8 396.633 622 396.633C622 394.653 622 392.673 622 390.633C626.455 390.138 626.455 390.138 631 389.633C631.023 379.871 631.041 370.11 631.052 360.348C631.057 355.816 631.064 351.284 631.075 346.752C631.086 342.382 631.092 338.011 631.095 333.641C631.097 331.97 631.1 330.299 631.106 328.628C631.113 326.296 631.114 323.964 631.114 321.631C631.117 320.933 631.121 320.236 631.124 319.517C631.391 316.296 631.391 316.296 630 313.633C628.653 313.402 627.296 313.221 625.938 313.07C624.638 312.926 623.339 312.782 622 312.633C622 310.653 622 308.673 622 306.633Z" fill="#20442C"/>
<path d="M1993 298.633C1993.33 311.503 1993.66 324.373 1994 337.633C1998.95 335.158 1998.95 335.158 2004 332.633C2009.59 330.236 2015.35 329.443 2021.21 331.355C2026.35 333.719 2029.39 336.617 2032.08 341.649C2033.44 346.057 2033.34 350.341 2033.38 354.93C2033.4 355.919 2033.41 356.908 2033.43 357.928C2033.48 361.079 2033.52 364.231 2033.56 367.383C2033.61 370.549 2033.65 373.715 2033.71 376.881C2033.74 378.849 2033.76 380.818 2033.79 382.787C2033.8 383.672 2033.81 384.556 2033.83 385.468C2033.84 386.25 2033.85 387.032 2033.86 387.838C2033.81 389.656 2033.81 389.656 2035 390.633C2037.33 391 2039.66 391.335 2042 391.633C2042 393.283 2042 394.933 2042 396.633C2032.1 396.633 2022.2 396.633 2012 396.633C2012 394.983 2012 393.333 2012 391.633C2014.31 391.303 2016.62 390.973 2019 390.633C2019.05 384.582 2019.09 378.532 2019.11 372.481C2019.12 370.423 2019.13 368.364 2019.15 366.306C2019.18 363.347 2019.19 360.389 2019.2 357.43C2019.21 356.51 2019.22 355.59 2019.23 354.642C2019.23 353.781 2019.23 352.921 2019.23 352.034C2019.23 350.902 2019.23 350.902 2019.24 349.746C2018.96 347.31 2018.27 345.722 2017 343.633C2013.72 341.291 2010.64 341.364 2006.69 341.383C2005.05 341.375 2005.05 341.375 2003.39 341.367C1999.33 341.572 1999.33 341.572 1993 343.633C1993.33 359.143 1993.66 374.653 1994 390.633C1997.46 391.128 1997.46 391.128 2001 391.633C2001 393.283 2001 394.933 2001 396.633C1991.1 396.633 1981.2 396.633 1971 396.633C1971 394.983 1971 393.333 1971 391.633C1973.64 391.303 1976.28 390.973 1979 390.633C1979.33 363.243 1979.66 335.853 1980 307.633C1976.7 307.633 1973.4 307.633 1970 307.633C1970 305.983 1970 304.333 1970 302.633C1971.95 301.948 1973.91 301.286 1975.88 300.633C1976.97 300.262 1978.06 299.89 1979.18 299.508C1983 298.633 1983 298.633 1993 298.633Z" fill="#1F432A"/>
<path d="M2080.06 330.319C2080.73 330.302 2081.41 330.284 2082.1 330.266C2087.7 330.274 2092.34 331.405 2096.71 335.062C2101.84 341.779 2102.32 346.962 2102.41 355.183C2102.43 356.197 2102.45 357.211 2102.47 358.255C2102.53 361.485 2102.58 364.714 2102.62 367.944C2102.66 370.138 2102.7 372.331 2102.74 374.524C2102.84 379.893 2102.92 385.263 2103 390.632C2105.64 390.962 2108.28 391.292 2111 391.632C2111 393.282 2111 394.932 2111 396.632C2104.4 396.632 2097.8 396.632 2091 396.632C2090.5 393.167 2090.5 393.167 2090 389.632C2088.87 390.198 2087.73 390.764 2086.57 391.347C2069.95 399.655 2069.95 399.655 2062 398.632C2056.54 396.476 2052.36 393.053 2050 387.632C2049.24 381.298 2048.91 374.832 2053 369.632C2062.45 361.736 2076.63 356.181 2089 356.632C2089.32 347.85 2089.32 347.85 2085.62 340.382C2082.33 338.187 2079.88 337.492 2076 337.507C2075.32 337.504 2074.64 337.502 2073.94 337.499C2071.78 337.566 2071.78 337.566 2069 338.632C2068.67 342.592 2068.34 346.552 2068 350.632C2065.87 350.659 2063.75 350.678 2061.62 350.694C2060.44 350.706 2059.26 350.718 2058.04 350.729C2055 350.632 2055 350.632 2053 349.632C2052.51 342.485 2052.51 342.485 2054.56 338.882C2062.1 331.924 2070.1 330.479 2080.06 330.319Z" fill="#20442C"/>
<path d="M960 332.633C969.57 332.633 979.14 332.633 989 332.633C989 334.283 989 335.933 989 337.633C986.36 337.633 983.72 337.633 981 337.633C984.237 351.769 987.888 365.726 992 379.633C992.326 378.643 992.652 377.653 992.988 376.633C993.43 375.299 993.871 373.966 994.312 372.633C994.526 371.984 994.739 371.336 994.959 370.668C996.271 366.713 997.685 362.814 999.163 358.918C1000.95 354.03 1002.55 349.075 1004.19 344.133C1004.56 343.024 1004.92 341.916 1005.3 340.773C1006.2 338.06 1007.1 335.347 1008 332.633C1011.63 332.633 1015.26 332.633 1019 332.633C1020.94 338.694 1022.88 344.757 1024.82 350.82C1026.16 355.011 1027.51 359.199 1028.87 363.383C1029.41 365.07 1029.96 366.758 1030.5 368.445C1030.75 369.22 1031.01 369.994 1031.27 370.792C1032.39 374.276 1033 376.935 1033 380.633C1033.66 380.633 1034.32 380.633 1035 380.633C1035.15 379.843 1035.29 379.052 1035.45 378.238C1037.07 370.089 1039.24 362.327 1041.93 354.471C1043.7 349.16 1044.54 344.217 1045 338.633C1043.02 338.303 1041.04 337.973 1039 337.633C1039 335.983 1039 334.333 1039 332.633C1046.59 332.633 1054.18 332.633 1062 332.633C1062 334.283 1062 335.933 1062 337.633C1059.69 337.633 1057.38 337.633 1055 337.633C1054.82 338.293 1054.65 338.952 1054.47 339.632C1052.61 346.544 1050.57 353.381 1048.43 360.207C1047.93 361.782 1047.93 361.782 1047.43 363.388C1046.39 366.7 1045.35 370.01 1044.31 373.32C1043.6 375.583 1042.89 377.845 1042.19 380.107C1040.46 385.617 1038.73 391.125 1037 396.633C1033.7 396.633 1030.4 396.633 1027 396.633C1024.84 391.01 1022.91 385.36 1021.12 379.609C1020.86 378.782 1020.6 377.955 1020.33 377.102C1019.51 374.488 1018.69 371.873 1017.88 369.258C1017.05 366.621 1016.23 363.985 1015.4 361.349C1014.89 359.716 1014.38 358.082 1013.87 356.448C1012.64 352.459 1012.64 352.459 1011 348.633C1005.22 364.593 999.54 380.586 994 396.633C990.7 396.633 987.4 396.633 984 396.633C978.95 381.686 974.311 366.577 970.062 351.383C969.864 350.676 969.665 349.969 969.459 349.24C968.402 345.394 967.582 341.579 967 337.633C964.69 337.633 962.38 337.633 960 337.633C960 335.983 960 334.333 960 332.633Z" fill="#1D4129"/>
<path d="M1959 308.629C1959 315.559 1959 322.489 1959 329.629C1956.36 329.629 1953.72 329.629 1951 329.629C1950.91 328.725 1950.83 327.822 1950.74 326.891C1950.6 325.711 1950.46 324.532 1950.31 323.317C1950.18 322.145 1950.06 320.973 1949.93 319.766C1949.29 316.463 1949.29 316.463 1946.53 314.754C1940.43 312.042 1934.69 311.808 1928.31 313.754C1924.6 315.853 1921.77 317.713 1920 321.629C1919.26 326.428 1919.2 330.707 1921.08 335.231C1923.62 338.408 1926.63 339.794 1930.25 341.442C1931.69 342.134 1933.13 342.828 1934.57 343.524C1935.68 344.047 1935.68 344.047 1936.8 344.581C1956.47 353.947 1956.47 353.947 1962.44 364.067C1964.35 372.796 1962.37 379.877 1958 387.629C1952.86 394.022 1944.91 397.243 1937 398.629C1925.05 399.512 1914.09 399.425 1903 394.629C1903 386.709 1903 378.789 1903 370.629C1905.97 370.629 1908.94 370.629 1912 370.629C1912.11 371.677 1912.22 372.725 1912.33 373.805C1912.49 375.184 1912.65 376.563 1912.81 377.942C1912.88 378.632 1912.95 379.322 1913.03 380.033C1913.36 382.839 1913.65 385.119 1915.26 387.484C1921.63 391.677 1928.63 391.42 1936 390.629C1940.89 389.046 1944.03 386.956 1947.06 382.817C1948.27 378.724 1948.41 375.896 1948 371.629C1946.62 369.286 1946.62 369.286 1945 367.629C1945 366.969 1945 366.309 1945 365.629C1942.52 364.381 1940.03 363.152 1937.53 361.93C1909.11 347.957 1909.11 347.957 1905 337.629C1904.11 330.121 1904.06 323.044 1908.32 316.594C1921.99 300.574 1940.85 303.045 1959 308.629Z" fill="#1D4129"/>
<path d="M2439 306.633C2460.78 306.633 2482.56 306.633 2505 306.633C2505 313.893 2505 321.153 2505 328.633C2502.03 328.633 2499.06 328.633 2496 328.633C2495.8 327.243 2495.8 327.243 2495.6 325.824C2495.42 324.627 2495.24 323.429 2495.06 322.195C2494.89 321 2494.71 319.805 2494.54 318.574C2494.31 315.753 2494.31 315.753 2493 314.633C2490.86 314.474 2488.71 314.382 2486.56 314.316C2484.8 314.259 2484.8 314.259 2483 314.201C2480.74 314.136 2480.74 314.136 2478.44 314.07C2473.67 313.926 2468.91 313.782 2464 313.633C2464 325.183 2464 336.733 2464 348.633C2469.17 348.416 2469.17 348.416 2474.44 348.195C2476.07 348.131 2476.07 348.131 2477.73 348.065C2479.01 348.008 2479.01 348.008 2480.31 347.949C2481.62 347.894 2481.62 347.894 2482.96 347.838C2484.99 347.851 2484.99 347.851 2486 346.633C2486.39 344.954 2486.74 343.264 2487.06 341.57C2487.24 340.651 2487.42 339.732 2487.6 338.785C2487.73 338.075 2487.86 337.365 2488 336.633C2490.31 336.633 2492.62 336.633 2495 336.633C2495 346.533 2495 356.433 2495 366.633C2492.69 366.633 2490.38 366.633 2488 366.633C2487.8 365.567 2487.8 365.567 2487.6 364.48C2487.42 363.561 2487.24 362.642 2487.06 361.695C2486.89 360.779 2486.71 359.862 2486.54 358.918C2486.22 356.68 2486.22 356.68 2485 355.633C2483.44 355.476 2481.87 355.382 2480.31 355.316C2479.46 355.278 2478.61 355.24 2477.73 355.201C2476.64 355.158 2475.56 355.115 2474.44 355.07C2470.99 354.926 2467.55 354.782 2464 354.633C2464.33 366.183 2464.66 377.733 2465 389.633C2468.3 389.963 2471.6 390.293 2475 390.633C2475 392.613 2475 394.593 2475 396.633C2463.45 396.633 2451.9 396.633 2440 396.633C2440 394.653 2440 392.673 2440 390.633C2444.45 390.138 2444.45 390.138 2449 389.633C2449.02 379.871 2449.04 370.11 2449.05 360.348C2449.06 355.816 2449.06 351.284 2449.08 346.752C2449.09 342.382 2449.09 338.011 2449.09 333.641C2449.1 331.97 2449.1 330.299 2449.11 328.628C2449.11 326.296 2449.11 323.964 2449.11 321.631C2449.12 320.933 2449.12 320.236 2449.12 319.517C2449.39 316.296 2449.39 316.296 2448 313.633C2446.49 313.401 2444.96 313.221 2443.44 313.07C2442.61 312.987 2441.78 312.903 2440.93 312.816C2440.3 312.756 2439.66 312.695 2439 312.633C2439 310.653 2439 308.673 2439 306.633Z" fill="#21452D"/>
<path d="M1098.31 330.441C1099.42 330.427 1100.53 330.413 1101.68 330.398C1107.69 330.816 1112.34 332.84 1117 336.629C1123.95 345.566 1124 349.2 1124 361.629C1109.81 361.629 1095.62 361.629 1081 361.629C1081.61 369.863 1081.61 369.863 1083.94 377.004C1084.28 377.795 1084.62 378.587 1084.96 379.402C1085.48 380.504 1085.48 380.504 1086 381.629C1086.33 382.361 1086.65 383.093 1086.99 383.848C1088.47 386.459 1090.18 386.733 1093 387.629C1093.91 388 1094.81 388.371 1095.75 388.754C1106.62 391.682 1114.36 387.265 1124 382.629C1124 385.269 1124 387.909 1124 390.629C1121.75 391.78 1119.5 392.925 1117.25 394.066C1116.3 394.555 1116.3 394.555 1115.33 395.053C1106.36 399.585 1096.85 400.224 1087.19 397.066C1078.66 393.503 1073.82 388.353 1069.91 380.059C1066.66 371.389 1066.35 359.004 1069.44 350.191C1073.6 341.58 1080.16 335.136 1089 331.629C1092.3 330.529 1094.84 330.461 1098.31 330.441Z" fill="#1E4229"/>
<path d="M2811.75 335.256C2819.42 343.345 2820 350.484 2820 361.631C2805.48 361.631 2790.96 361.631 2776 361.631C2778.55 375.941 2778.55 375.941 2787.13 387.193C2793.44 390.348 2799.42 390.821 2806.15 388.584C2809.14 387.331 2812.07 386 2815 384.631C2816.66 383.953 2818.33 383.283 2820 382.631C2820 385.271 2820 387.911 2820 390.631C2817.82 391.79 2815.63 392.933 2813.44 394.068C2812.83 394.394 2812.22 394.719 2811.59 395.055C2803.7 399.106 2794 400.101 2785.35 397.983C2776.32 394.731 2770.39 389.257 2765.91 380.842C2762.35 372.194 2762.13 359.302 2765.25 350.518C2769.1 341.555 2775 335.714 2783.81 331.693C2793.3 328.652 2803.31 330.271 2811.75 335.256Z" fill="#1E422A"/>
<path d="M2283.09 331.373C2288.13 333.954 2291.19 337.369 2293.08 342.654C2294.36 347.372 2294.35 352.078 2294.41 356.939C2294.43 357.906 2294.45 358.872 2294.47 359.868C2294.53 362.935 2294.58 366.001 2294.62 369.068C2294.66 371.156 2294.7 373.244 2294.74 375.332C2294.84 380.431 2294.92 385.531 2295 390.63C2297.31 390.96 2299.62 391.29 2302 391.63C2302 393.28 2302 394.93 2302 396.63C2292.43 396.63 2282.86 396.63 2273 396.63C2273 394.98 2273 393.33 2273 391.63C2275.64 391.3 2278.28 390.97 2281 390.63C2280.96 384.598 2280.89 378.566 2280.79 372.534C2280.76 370.482 2280.74 368.431 2280.73 366.379C2280.71 363.427 2280.66 360.477 2280.61 357.525C2280.61 356.61 2280.61 355.695 2280.61 354.753C2280.51 350.534 2280.37 348.221 2278.09 344.575C2274.65 341.37 2272.44 341.47 2267.81 341.443C2266.15 341.422 2266.15 341.422 2264.46 341.4C2260.34 341.553 2260.34 341.553 2254 343.63C2254.33 359.14 2254.66 374.65 2255 390.63C2258.46 391.125 2258.46 391.125 2262 391.63C2262 393.28 2262 394.93 2262 396.63C2252.1 396.63 2242.2 396.63 2232 396.63C2232 394.98 2232 393.33 2232 391.63C2234.64 391.3 2237.28 390.97 2240 390.63C2240.33 374.46 2240.66 358.29 2241 341.63C2238.03 341.63 2235.06 341.63 2232 341.63C2232 339.98 2232 338.33 2232 336.63C2239.53 334.022 2246 332.088 2254 332.63C2254.33 334.28 2254.66 335.93 2255 337.63C2255.96 337.125 2256.91 336.62 2257.89 336.099C2266.11 331.907 2273.79 328.07 2283.09 331.373Z" fill="#1F432A"/>
<path d="M1642.31 331.753C1647.57 335.424 1650.42 339.465 1652 345.628C1652.32 349.103 1652.37 352.569 1652.41 356.058C1652.43 357.048 1652.45 358.038 1652.47 359.059C1652.53 362.207 1652.58 365.355 1652.62 368.503C1652.66 370.644 1652.7 372.784 1652.74 374.925C1652.84 380.159 1652.92 385.393 1653 390.628C1655.64 390.958 1658.28 391.288 1661 391.628C1661 393.278 1661 394.928 1661 396.628C1651.1 396.628 1641.2 396.628 1631 396.628C1631 394.978 1631 393.328 1631 391.628C1633.64 391.298 1636.28 390.968 1639 390.628C1638.91 384.577 1638.8 378.527 1638.68 372.476C1638.64 370.418 1638.61 368.36 1638.58 366.301C1638.53 363.342 1638.47 360.384 1638.41 357.425C1638.4 356.505 1638.39 355.585 1638.38 354.637C1638.36 353.777 1638.34 352.916 1638.32 352.029C1638.31 351.274 1638.29 350.519 1638.28 349.741C1637.96 347.32 1637.27 345.705 1636 343.628C1628.92 339.204 1619.41 341.98 1612 343.628C1612.33 359.138 1612.66 374.648 1613 390.628C1616.46 391.123 1616.46 391.123 1620 391.628C1620 393.278 1620 394.928 1620 396.628C1610.1 396.628 1600.2 396.628 1590 396.628C1590 394.978 1590 393.328 1590 391.628C1592.64 391.298 1595.28 390.968 1598 390.628C1598.33 374.458 1598.66 358.288 1599 341.628C1596.03 341.628 1593.06 341.628 1590 341.628C1590 339.978 1590 338.328 1590 336.628C1592.18 335.95 1594.37 335.286 1596.56 334.628C1597.78 334.257 1599 333.886 1600.25 333.503C1603.98 332.633 1607.19 332.471 1611 332.628C1611 334.608 1611 336.588 1611 338.628C1612.05 338.134 1613.1 337.641 1614.18 337.132C1615.55 336.485 1616.93 335.838 1618.31 335.191C1619 334.865 1619.69 334.54 1620.4 334.204C1627.84 330.721 1634.32 329.037 1642.31 331.753Z" fill="#1E422A"/>
<path d="M1277.31 331.753C1282.57 335.424 1285.42 339.465 1287 345.628C1287.32 349.103 1287.37 352.569 1287.41 356.058C1287.43 357.048 1287.45 358.038 1287.47 359.059C1287.53 362.207 1287.58 365.355 1287.62 368.503C1287.66 370.644 1287.7 372.784 1287.74 374.925C1287.84 380.159 1287.92 385.393 1288 390.628C1290.31 390.958 1292.62 391.288 1295 391.628C1295 393.278 1295 394.928 1295 396.628C1285.43 396.628 1275.86 396.628 1266 396.628C1266 394.978 1266 393.328 1266 391.628C1268.64 391.298 1271.28 390.968 1274 390.628C1273.91 384.577 1273.8 378.527 1273.68 372.476C1273.64 370.418 1273.61 368.36 1273.58 366.301C1273.53 363.342 1273.47 360.384 1273.41 357.425C1273.4 356.505 1273.39 355.585 1273.38 354.637C1273.36 353.777 1273.34 352.916 1273.32 352.029C1273.31 351.274 1273.29 350.519 1273.28 349.741C1272.96 347.32 1272.27 345.705 1271 343.628C1263.92 339.204 1254.41 341.98 1247 343.628C1247.33 359.138 1247.66 374.648 1248 390.628C1251.46 391.123 1251.46 391.123 1255 391.628C1255 393.278 1255 394.928 1255 396.628C1245.1 396.628 1235.2 396.628 1225 396.628C1225 394.978 1225 393.328 1225 391.628C1227.64 391.298 1230.28 390.968 1233 390.628C1233.33 374.458 1233.66 358.288 1234 341.628C1231.03 341.628 1228.06 341.628 1225 341.628C1225 339.978 1225 338.328 1225 336.628C1238.45 332.036 1238.45 332.036 1246 332.628C1246 334.608 1246 336.588 1246 338.628C1247.05 338.134 1248.1 337.641 1249.18 337.132C1250.55 336.485 1251.93 335.838 1253.31 335.191C1254 334.865 1254.69 334.54 1255.4 334.204C1262.84 330.721 1269.32 329.037 1277.31 331.753Z" fill="#1E422A"/>
<path d="M2655 330.628C2655.01 331.548 2655.01 331.548 2655.02 332.486C2655.08 338.878 2655.17 345.269 2655.26 351.661C2655.3 354.045 2655.32 356.429 2655.35 358.813C2655.38 362.244 2655.43 365.674 2655.49 369.105C2655.49 370.167 2655.5 371.23 2655.51 372.325C2655.62 377.806 2655.85 381.927 2659 386.628C2661.82 388.649 2664.26 388.924 2667.69 388.941C2668.48 388.957 2669.26 388.974 2670.07 388.991C2674.1 388.589 2674.1 388.589 2682 385.628C2682 370.778 2682 355.928 2682 340.628C2679.03 340.628 2676.06 340.628 2673 340.628C2673 338.978 2673 337.328 2673 335.628C2675.16 334.779 2677.33 333.949 2679.5 333.128C2680.71 332.664 2681.91 332.2 2683.16 331.722C2687 330.628 2687 330.628 2695 330.628C2695 350.428 2695 370.228 2695 390.628C2697.97 390.958 2700.94 391.288 2704 391.628C2704 393.278 2704 394.928 2704 396.628C2696.74 396.628 2689.48 396.628 2682 396.628C2681.5 393.658 2681.5 393.658 2681 390.628C2680.34 391.038 2679.67 391.448 2678.99 391.87C2678.11 392.409 2677.22 392.948 2676.31 393.503C2675.44 394.037 2674.57 394.571 2673.68 395.12C2667.23 398.751 2661.22 399.895 2653.94 398.128C2649.01 396.257 2646.39 393.596 2644.18 388.879C2640.82 379.604 2641.68 369.715 2641.81 360.003C2641.83 358.122 2641.84 356.24 2641.85 354.359C2641.89 349.782 2641.94 345.205 2642 340.628C2639.03 340.628 2636.06 340.628 2633 340.628C2633 338.978 2633 337.328 2633 335.628C2635.16 334.779 2637.33 333.949 2639.5 333.128C2640.71 332.664 2641.91 332.2 2643.16 331.722C2647.43 330.506 2650.59 330.548 2655 330.628Z" fill="#1F432B"/>
<path d="M2533 330.633C2533.01 331.553 2533.01 331.553 2533.02 332.491C2533.11 338.883 2533.21 345.274 2533.32 351.666C2533.36 354.05 2533.39 356.434 2533.42 358.818C2533.47 362.249 2533.53 365.679 2533.59 369.109C2533.6 370.172 2533.61 371.235 2533.62 372.33C2533.72 377.419 2533.81 381.929 2536 386.633C2540.21 389.527 2546.08 389.273 2551 388.633C2553.64 387.643 2556.28 386.653 2559 385.633C2559.33 370.783 2559.66 355.933 2560 340.633C2557.03 340.633 2554.06 340.633 2551 340.633C2551 338.983 2551 337.333 2551 335.633C2553.35 334.786 2555.7 333.955 2558.06 333.133C2558.72 332.894 2559.38 332.656 2560.05 332.41C2561.03 332.072 2561.03 332.072 2562.04 331.727C2562.92 331.412 2562.92 331.412 2563.83 331.092C2566.9 330.443 2569.88 330.567 2573 330.633C2573.01 331.37 2573.02 332.107 2573.03 332.866C2573.13 339.797 2573.23 346.728 2573.34 353.659C2573.39 357.223 2573.45 360.786 2573.5 364.35C2573.55 368.443 2573.62 372.536 2573.68 376.629C2573.7 377.914 2573.72 379.2 2573.73 380.524C2573.76 382.296 2573.76 382.296 2573.79 384.103C2573.82 385.672 2573.82 385.672 2573.84 387.273C2573.74 389.589 2573.74 389.589 2575 390.633C2577.33 391 2579.66 391.335 2582 391.633C2582 393.283 2582 394.933 2582 396.633C2575.07 396.633 2568.14 396.633 2561 396.633C2561 394.323 2561 392.013 2561 389.633C2560.19 390.115 2559.38 390.597 2558.55 391.094C2557.48 391.725 2556.41 392.357 2555.31 393.008C2554.26 393.634 2553.2 394.261 2552.11 394.906C2545.64 398.498 2540.39 399.616 2533 398.633C2528.07 396.873 2525.01 394.248 2522.56 389.633C2519.88 383.662 2519.86 377.822 2519.9 371.395C2519.9 370.514 2519.91 369.633 2519.91 368.726C2519.91 365.924 2519.92 363.122 2519.94 360.32C2519.94 358.416 2519.95 356.512 2519.95 354.608C2519.96 349.949 2519.98 345.291 2520 340.633C2517.03 340.633 2514.06 340.633 2511 340.633C2511 338.983 2511 337.333 2511 335.633C2513.35 334.786 2515.7 333.955 2518.06 333.133C2518.72 332.894 2519.38 332.656 2520.05 332.41C2520.71 332.185 2521.36 331.959 2522.04 331.727C2522.63 331.517 2523.22 331.308 2523.83 331.092C2526.9 330.443 2529.88 330.567 2533 330.633Z" fill="#1F432A"/>
<path d="M925.999 336.631C932.503 339.944 935.896 344.508 938.364 351.303C939.506 355.488 939.486 359.63 939.437 363.943C939.428 364.87 939.42 365.796 939.411 366.75C939.221 374.459 938.605 381.623 933.245 387.58C928.668 391.68 925.45 392.997 919.316 392.908C914.526 392.335 911.871 389.627 908.812 386.131C903.53 375.932 902.174 363.639 904.726 352.443C906.725 346.462 909.278 340.862 914.882 337.502C918.553 335.992 922.105 336.082 925.999 336.631Z" fill="#FCFCFC"/>
<path d="M1703.69 337.382C1704.99 337.398 1706.29 337.413 1707.64 337.429C1711 337.632 1711 337.632 1714 338.632C1714.13 345.128 1714.21 351.624 1714.27 358.121C1714.3 360.332 1714.33 362.542 1714.38 364.753C1714.44 367.928 1714.47 371.101 1714.49 374.277C1714.51 375.268 1714.54 376.258 1714.57 377.279C1714.57 379.828 1714.53 382.14 1714 384.632C1711.6 386.707 1711.6 386.707 1709 387.632C1708.32 388.016 1707.65 388.401 1706.95 388.796C1702.74 390.601 1698.16 390.243 1693.81 389.015C1688.3 386.657 1685.39 383.063 1683 377.632C1680.14 369.122 1679.14 359.034 1682.69 350.57C1687.53 341.54 1693.08 337.171 1703.69 337.382Z" fill="#FCFDFC"/>
<path d="M1786 333.631C1786 338.911 1786 344.191 1786 349.631C1783.36 349.631 1780.72 349.631 1778 349.631C1778 346.331 1778 343.031 1778 339.631C1774.25 338.774 1770.72 338.439 1766.88 338.381C1765.84 338.356 1764.81 338.33 1763.74 338.303C1761.01 338.418 1761.01 338.418 1759.16 339.87C1757.71 342.07 1757.57 343.444 1757.56 346.069C1757.54 346.831 1757.52 347.592 1757.5 348.377C1758.22 351.632 1759.37 352.557 1762 354.631C1765.88 356.822 1769.9 358.737 1773.91 360.657C1779.4 363.406 1783.8 366.26 1787 371.631C1788.48 377.78 1787.62 384.473 1784.39 389.948C1780.13 395.094 1774.34 397.111 1768 398.631C1759.1 399.372 1751.37 398.722 1743 395.631C1743 389.691 1743 383.751 1743 377.631C1745.64 377.631 1748.28 377.631 1751 377.631C1751.33 381.591 1751.66 385.551 1752 389.631C1758.33 391.786 1764.6 393.08 1770.94 390.381C1774.12 387.678 1774.85 385.817 1775.38 381.694C1774.88 377.685 1773.83 376.53 1771 373.631C1767.96 371.724 1764.78 370.148 1761.56 368.569C1746.78 361.217 1746.78 361.217 1744 354.631C1743.14 349.136 1743.82 344.361 1746.52 339.491C1755.71 327.924 1773.5 328.175 1786 333.631Z" fill="#21442C"/>
<path d="M2871 332.63C2872 333.63 2872 333.63 2872.1 337.228C2872.09 338.716 2872.08 340.204 2872.06 341.692C2872.06 342.451 2872.05 343.21 2872.05 343.991C2872.04 345.871 2872.02 347.75 2872 349.63C2869.36 349.63 2866.72 349.63 2864 349.63C2864 346.33 2864 343.03 2864 339.63C2858.34 338.359 2852.77 337.921 2847 338.63C2843.98 340.466 2843.98 340.466 2843 343.63C2843 347.297 2843.21 349.606 2845.48 352.544C2849.78 356.104 2854.89 358.257 2859.91 360.655C2865.4 363.401 2869.83 366.242 2873 371.63C2874.37 377.469 2873.96 383.773 2871.12 389.13C2867.21 394.441 2860.4 397.472 2854 398.63C2845.09 399.175 2837.44 398.746 2829 395.63C2829 389.69 2829 383.75 2829 377.63C2831.31 377.63 2833.62 377.63 2836 377.63C2837.74 379.37 2837.37 381.824 2837.56 384.192C2837.65 385.204 2837.73 386.216 2837.82 387.259C2837.88 388.041 2837.94 388.824 2838 389.63C2844.4 391.459 2850.5 393.153 2856.88 390.38C2860.13 387.7 2860.84 385.847 2861.38 381.692C2860.88 377.684 2859.83 376.528 2857 373.63C2853.96 371.723 2850.78 370.146 2847.56 368.567C2832.71 361.179 2832.71 361.179 2830 353.63C2829 347.71 2829.93 343.344 2833.37 338.423C2842.74 328.13 2858.57 328.847 2871 332.63Z" fill="#20442C"/>
<path d="M2158 340.629C2163.48 343.328 2167.21 348.196 2169.38 353.852C2171.61 363.799 2170.92 374.602 2166 383.629C2162.41 388.052 2158.4 390.83 2153 392.629C2151.38 392.747 2149.75 392.804 2148.12 392.817C2147.28 392.831 2146.44 392.845 2145.57 392.86C2143 392.629 2143 392.629 2138 390.629C2138 375.119 2138 359.609 2138 343.629C2145.09 340.086 2150.21 339.411 2158 340.629Z" fill="#FCFDFC"/>
<path d="M855 340.629C860.441 343.308 864.216 348.163 866.375 353.782C868.331 362.692 868.395 373.217 864.402 381.543C861.06 386.515 855.978 391.348 850 392.629C844.223 393.061 840.483 392.822 835 390.629C835 375.119 835 359.609 835 343.629C842.087 340.086 847.211 339.411 855 340.629Z" fill="#FCFCFC"/>
<path d="M2753 330.632C2755.47 331.622 2755.47 331.622 2758 332.632C2758 337.252 2758 341.872 2758 346.632C2756.02 346.632 2754.04 346.632 2752 346.632C2751.55 346.137 2751.09 345.642 2750.62 345.132C2748.91 343.266 2748.91 343.266 2745.31 343.07C2740.85 343.266 2738.13 345.005 2734.68 347.726C2731.63 351.188 2732.01 354.765 2732.22 359.187C2732.23 360.088 2732.24 360.99 2732.25 361.919C2732.3 364.784 2732.4 367.644 2732.5 370.507C2732.54 372.455 2732.58 374.403 2732.61 376.351C2732.7 381.113 2732.84 385.872 2733 390.632C2736.3 390.962 2739.6 391.292 2743 391.632C2743 393.282 2743 394.932 2743 396.632C2732.11 396.632 2721.22 396.632 2710 396.632C2710 394.982 2710 393.332 2710 391.632C2714.45 391.137 2714.45 391.137 2719 390.632C2719 374.462 2719 358.292 2719 341.632C2716.03 341.632 2713.06 341.632 2710 341.632C2710 339.982 2710 338.332 2710 336.632C2724.6 332.04 2724.6 332.04 2732 332.632C2732.33 335.932 2732.66 339.232 2733 342.632C2733.85 341.58 2734.69 340.528 2735.56 339.445C2740.65 333.573 2744.8 329.569 2753 330.632Z" fill="#1F432B"/>
<path d="M2603 315.633C2604.98 315.633 2606.96 315.633 2609 315.633C2609 321.243 2609 326.853 2609 332.633C2615.27 332.633 2621.54 332.633 2628 332.633C2628 334.613 2628 336.593 2628 338.633C2621.73 338.633 2615.46 338.633 2609 338.633C2609.07 344.79 2609.16 350.946 2609.26 357.102C2609.3 359.195 2609.32 361.288 2609.35 363.381C2609.38 366.395 2609.43 369.408 2609.49 372.422C2609.49 373.353 2609.5 374.285 2609.51 375.245C2609.62 380.422 2610.07 384.173 2613 388.633C2616 390.134 2618.79 389.726 2622.12 389.695C2623.41 389.686 2624.69 389.677 2626.01 389.668C2627 389.656 2627.98 389.645 2629 389.633C2629 391.283 2629 392.933 2629 394.633C2620.2 398.511 2611.81 400.568 2602.44 397.445C2599.65 395.376 2598.55 393.719 2597 390.633C2596.64 388.057 2596.64 388.057 2596.66 385.292C2596.66 384.251 2596.66 383.21 2596.66 382.138C2596.68 381.026 2596.69 379.915 2596.71 378.77C2596.71 377.622 2596.72 376.475 2596.72 375.293C2596.74 371.635 2596.77 367.978 2596.81 364.32C2596.83 361.838 2596.84 359.355 2596.85 356.873C2596.89 350.793 2596.94 344.713 2597 338.633C2594.03 338.633 2591.06 338.633 2588 338.633C2588 336.383 2588 336.383 2589 333.633C2590.22 333.158 2591.43 332.684 2592.69 332.195C2596.67 330.51 2597.98 328.272 2599.71 324.355C2600.87 321.467 2601.96 318.569 2603 315.633Z" fill="#1B3F27"/>
<path d="M1176 330.632C1177.32 331.292 1178.64 331.952 1180 332.632C1180 336.922 1180 341.212 1180 345.632C1174 345.632 1174 345.632 1171 343.632C1165.7 342.881 1165.7 342.881 1160.99 344.976C1159.78 346.054 1158.59 347.168 1157.45 348.32C1156 349.632 1156 349.632 1154 349.632C1154.5 369.927 1154.5 369.927 1155 390.632C1158.63 390.962 1162.26 391.292 1166 391.632C1166 393.282 1166 394.932 1166 396.632C1154.78 396.632 1143.56 396.632 1132 396.632C1132 394.982 1132 393.332 1132 391.632C1134.05 391.405 1136.1 391.177 1138.15 390.949C1140.01 390.814 1140.01 390.814 1141 389.632C1141.12 388.129 1141.18 386.621 1141.21 385.113C1141.23 384.152 1141.25 383.191 1141.27 382.201C1141.29 380.634 1141.29 380.634 1141.32 379.035C1141.35 377.439 1141.35 377.439 1141.38 375.811C1141.44 372.397 1141.5 368.984 1141.56 365.57C1141.61 363.262 1141.65 360.954 1141.69 358.646C1141.8 352.975 1141.9 347.304 1142 341.632C1138.7 341.632 1135.4 341.632 1132 341.632C1132 339.982 1132 338.332 1132 336.632C1139.53 334.024 1146 332.09 1154 332.632C1154.33 335.932 1154.66 339.232 1155 342.632C1155.68 341.934 1156.35 341.235 1157.05 340.515C1157.94 339.605 1158.83 338.695 1159.75 337.757C1161.07 336.4 1161.07 336.4 1162.42 335.015C1166.92 330.854 1169.85 330.193 1176 330.632Z" fill="#1A3F26"/>
<path d="M1968 68.6328C1980.54 68.6328 1993.08 68.6328 2006 68.6328C2006 78.8628 2006 89.0928 2006 99.6328C1993.46 99.6328 1980.92 99.6328 1968 99.6328C1968 89.4028 1968 79.1728 1968 68.6328Z" fill="#FF463C"/>
<path d="M1289 68.6328C1301.54 68.6328 1314.08 68.6328 1327 68.6328C1327 78.8628 1327 89.0928 1327 99.6328C1314.46 99.6328 1301.92 99.6328 1289 99.6328C1289 89.4028 1289 79.1728 1289 68.6328Z" fill="#FF463C"/>
<path d="M1573 330.633C1573.33 350.433 1573.66 370.233 1574 390.633C1576.97 390.963 1579.94 391.293 1583 391.633C1583 393.283 1583 394.933 1583 396.633C1572.44 396.633 1561.88 396.633 1551 396.633C1551 394.983 1551 393.333 1551 391.633C1553.64 391.303 1556.28 390.973 1559 390.633C1559.33 374.133 1559.66 357.633 1560 340.633C1557.03 340.633 1554.06 340.633 1551 340.633C1551 338.983 1551 337.333 1551 335.633C1553.35 334.786 1555.7 333.955 1558.06 333.133C1558.72 332.894 1559.38 332.656 1560.05 332.41C1560.71 332.185 1561.36 331.959 1562.04 331.727C1562.63 331.517 1563.22 331.308 1563.83 331.092C1566 330.633 1566 330.633 1573 330.633Z" fill="#21442C"/>
<path d="M1208 330.633C1208.33 350.433 1208.66 370.233 1209 390.633C1211.97 390.963 1214.94 391.293 1218 391.633C1218 393.283 1218 394.933 1218 396.633C1207.44 396.633 1196.88 396.633 1186 396.633C1186 394.983 1186 393.333 1186 391.633C1188.64 391.303 1191.28 390.973 1194 390.633C1194.33 374.133 1194.66 357.633 1195 340.633C1192.03 340.633 1189.06 340.633 1186 340.633C1186 338.983 1186 337.333 1186 335.633C1188.35 334.786 1190.7 333.955 1193.06 333.133C1193.72 332.894 1194.38 332.656 1195.05 332.41C1195.71 332.185 1196.36 331.959 1197.04 331.727C1197.63 331.517 1198.22 331.308 1198.83 331.092C1201 330.633 1201 330.633 1208 330.633Z" fill="#21442C"/>
<path d="M2215 330.633C2215.33 350.433 2215.66 370.233 2216 390.633C2218.64 390.963 2221.28 391.293 2224 391.633C2224 393.283 2224 394.933 2224 396.633C2213.77 396.633 2203.54 396.633 2193 396.633C2193 394.983 2193 393.333 2193 391.633C2195.64 391.303 2198.28 390.973 2201 390.633C2201.33 374.133 2201.66 357.633 2202 340.633C2199.03 340.633 2196.06 340.633 2193 340.633C2193 338.983 2193 337.333 2193 335.633C2194.95 334.894 2196.9 334.157 2198.85 333.434C2200.58 332.791 2202.29 332.122 2204 331.445C2207 330.633 2207 330.633 2215 330.633Z" fill="#21442C"/>
<path d="M2353.05 397.398C2355.37 398.863 2356.57 400.287 2358 402.628C2358.65 407.549 2357.93 410.929 2355.35 415.054C2352.99 417.808 2350.25 419.064 2347 420.628C2346.34 420.958 2345.68 421.288 2345 421.628C2338.79 422.156 2333.24 422.372 2328 418.628C2323.95 414.587 2321.87 411.019 2321.69 405.253C2321.73 401.85 2321.95 400.719 2323.75 397.691C2331.54 390.548 2344.08 393.661 2353.05 397.398Z" fill="#FAFBFB"/>
<path d="M1019.25 139.258C1020 139.209 1020.74 139.16 1021.52 139.109C1024.4 139.717 1026.58 140.609 1028.79 142.595C1031.42 147.033 1030.75 152.543 1030.62 157.553C1030.56 159.627 1030.56 161.698 1030.56 163.773C1030.41 175.073 1030.41 175.073 1027 179.633C1024.47 180.897 1022.51 180.944 1019.69 181.07C1018.27 181.161 1018.27 181.161 1016.82 181.254C1013.63 180.551 1011.92 179.509 1009.95 176.864C1007.71 171.623 1008.34 165.662 1008.44 160.07C1008.43 158.756 1008.41 157.442 1008.4 156.088C1008.49 145.273 1008.49 145.273 1013 140.633C1015.26 139.504 1016.74 139.369 1019.25 139.258Z" fill="#FFFDFC"/>
<path d="M2205.85 139.265C2208.79 139.761 2210.7 140.746 2213 142.628C2216.36 147.673 2215.33 153.579 2215.31 159.503C2215.33 160.783 2215.35 162.063 2215.36 163.382C2215.36 164.616 2215.36 165.849 2215.36 167.12C2215.37 168.248 2215.37 169.376 2215.37 170.538C2214.96 174.009 2214.09 175.848 2212 178.628C2208.67 180.851 2207.41 180.925 2203.5 180.941C2202.54 180.958 2201.58 180.974 2200.6 180.992C2198 180.628 2198 180.628 2196.22 179.296C2192.65 174.416 2193.7 167.645 2193.65 161.859C2193.63 160.459 2193.61 159.058 2193.57 157.658C2193.51 155.629 2193.49 153.603 2193.48 151.574C2193.45 149.756 2193.45 149.756 2193.42 147.902C2194.69 140.762 2199.33 138.885 2205.85 139.265Z" fill="#FFFCFC"/>
<path d="M1558.62 139.132C1562.23 139.892 1563.86 141.728 1566 144.632C1568.15 148.933 1567.23 154.659 1567.25 159.382C1567.27 160.563 1567.29 161.744 1567.31 162.961C1567.36 174.013 1567.36 174.013 1564 178.632C1560.85 180.733 1559.78 180.976 1556.12 181.07C1555.28 181.11 1554.44 181.15 1553.57 181.191C1549.8 180.373 1548.42 178.585 1546 175.632C1545.35 172.299 1545.35 172.299 1545.34 168.539C1545.33 167.87 1545.33 167.2 1545.32 166.511C1545.32 165.102 1545.33 163.694 1545.35 162.285C1545.37 160.138 1545.35 157.995 1545.32 155.847C1545.32 154.474 1545.33 153.1 1545.34 151.726C1545.34 150.486 1545.35 149.245 1545.35 147.966C1546.81 140.444 1551.77 138.806 1558.62 139.132Z" fill="#FFFBFB"/>
<path d="M1340.27 395.486C1348.49 398.357 1348.49 398.357 1351 401.631C1351.6 406.761 1351.38 410.543 1348.45 415.021C1344.84 419.036 1340.54 421.188 1335.25 422.111C1328.59 422.454 1324.06 420.978 1319 416.631C1315.5 412.788 1314.55 408.983 1314.57 403.768C1315.36 399.843 1318.09 397.234 1321 394.631C1326.3 391.981 1334.75 394.042 1340.27 395.486Z" fill="#FBFCFB"/>
<path d="M1336 336.63C1340.04 339.552 1342.3 342.966 1344 347.63C1345.02 354.197 1343.63 360.057 1340 365.63C1337.1 368.366 1335.03 369.081 1331.06 369.13C1327.24 369.012 1326.2 368.779 1323 366.443C1318.17 359.645 1318.21 352.753 1319 344.63C1321.88 336.74 1328.44 335.457 1336 336.63Z" fill="#FAFBFA"/>
<path d="M2343 336.632C2346.4 339.178 2348.45 341.713 2350 345.632C2351.51 359.525 2351.51 359.525 2347.63 365.007C2344.3 368.332 2342.76 368.829 2338.19 369.007C2334.34 368.963 2333.28 368.837 2330.06 366.507C2325.73 360.474 2324.09 356.004 2325 348.632C2325.95 344.462 2327.34 341.438 2330.06 338.132C2334.37 335.933 2338.26 335.721 2343 336.632Z" fill="#FAFBFA"/>
<path d="M2089 361.633C2089 369.223 2089 376.813 2089 384.633C2077.48 391.632 2077.48 391.632 2070.95 391.164C2067.62 390.256 2066.01 388.328 2064 385.633C2062.75 381.886 2062.38 378.517 2063 374.633C2067.18 367.534 2074.68 364.368 2082.44 362.32C2086 361.633 2086 361.633 2089 361.633Z" fill="#FBFBFB"/>
<path d="M1817 376.633C1822.58 379.472 1822.58 379.472 1823.64 382.391C1825.25 392.44 1824.32 401.469 1818.42 409.887C1814.81 414.303 1811.24 417.358 1806 419.633C1803.56 419.383 1803.56 419.383 1802 418.633C1803.16 415.885 1804.43 414.149 1806.44 411.883C1810.24 407.467 1811.66 402.209 1813 396.633C1811.36 396.54 1811.36 396.54 1809.69 396.446C1806 395.633 1806 395.633 1804.06 393.571C1802.7 389.796 1802.25 386.599 1803 382.633C1806.69 376.846 1810.27 375.722 1817 376.633Z" fill="#1D4129"/>
<path d="M683 98.6328C693 98.6328 693 98.6328 696.594 100.535C699.919 104.816 699.757 107.93 699.5 113.195C699.49 114.045 699.479 114.896 699.469 115.771C699.283 123.181 699.283 123.181 697 126.633C693 128.633 693 128.633 683 128.633C683 118.733 683 108.833 683 98.6328Z" fill="#FFFDFC"/>
<path d="M1103 337.632C1106.72 339.329 1108.61 341.817 1110.38 345.507C1111 348.632 1111 348.632 1111 355.632C1101.43 355.632 1091.86 355.632 1082 355.632C1083.13 345.49 1083.13 345.49 1086.44 342.132C1087.05 341.482 1087.67 340.832 1088.31 340.163C1092.44 336.427 1097.73 336.978 1103 337.632Z" fill="#FCFCFC"/>
<path d="M2799 337.634C2803.04 339.94 2803.89 341.414 2806 345.634C2806 348.934 2806 352.234 2806 355.634C2796.76 355.634 2787.52 355.634 2778 355.634C2778 347.426 2779.37 345.588 2784.56 339.759C2788.79 336.425 2793.91 336.787 2799 337.634Z" fill="#FCFDFD"/>
<path d="M2855 133.632C2857.62 135.694 2857.62 135.694 2859 138.632C2859 141.272 2859 143.912 2859 146.632C2852.07 146.632 2845.14 146.632 2838 146.632C2838 138.382 2838 138.382 2841 134.632C2845.52 131.76 2849.96 132.36 2855 133.632Z" fill="#FFFBFA"/>
<path d="M1572 302.628C1574.5 304.753 1574.5 304.753 1576 307.628C1576.07 311.893 1575.65 313.866 1572.88 317.128C1569.03 319.135 1567.11 318.9 1563 317.628C1560.13 315.049 1559.16 313.402 1558.38 309.628C1559.1 306.167 1560.36 304.571 1563.21 302.484C1566.46 300.927 1568.68 301.523 1572 302.628Z" fill="#23462F"/>
<path d="M1207 302.63C1209.5 304.755 1209.5 304.755 1211 307.63C1211.07 311.894 1210.65 313.867 1207.87 317.13C1204.03 319.137 1202.11 318.902 1198 317.63C1195.5 315.505 1195.5 315.505 1194 312.63C1193.93 308.366 1194.35 306.393 1197.12 303.13C1200.97 301.123 1202.89 301.358 1207 302.63Z" fill="#23462E"/>
<path d="M907.188 168.57C908.089 168.579 908.991 168.588 909.919 168.597C910.606 168.609 911.293 168.62 912.001 168.632C911.388 178.333 911.388 178.333 908.001 182.632C904.306 185.095 902.368 185.022 898.001 184.632C896.063 183.632 896.063 183.632 895.001 181.632C894.228 174.672 894.228 174.672 896.813 171.195C900.293 168.709 903.034 168.516 907.188 168.57Z" fill="#FFF8F8"/>
<path d="M1670.69 168.566C1671.9 168.58 1671.9 168.58 1673.14 168.593C1674.06 168.611 1674.06 168.611 1675 168.629C1675.29 174.236 1675.13 177.753 1672 182.629C1668.28 185.109 1666.4 185.092 1662 184.629C1659.56 183.004 1659.56 183.004 1658 180.629C1657.44 177.691 1657.44 177.691 1658 174.629C1661.86 169.932 1664.71 168.479 1670.69 168.566Z" fill="#FFF8F8"/>
<path d="M1139.13 168.569C1140.04 168.578 1140.95 168.587 1141.88 168.597C1142.58 168.608 1143.28 168.62 1144 168.632C1144.32 173.876 1143.84 177.171 1141 181.632C1138.63 184.082 1137.39 184.575 1134 185.069C1131 184.632 1131 184.632 1128.63 183.069C1126.36 179.673 1126.36 177.631 1127 173.632C1130.95 169.685 1133.67 168.499 1139.13 168.569Z" fill="#FFF9F9"/>
<path d="M2550 168.631C2550.35 174.29 2549.6 177.712 2547 182.631C2543.22 185.149 2540.44 185.371 2536 184.631C2533.34 182.473 2533.07 181.048 2532.5 177.694C2533.17 173.575 2534.78 172.193 2538 169.631C2541.66 167.99 2546.06 168.565 2550 168.631Z" fill="#FFF9F9"/>
<path d="M2211.88 302.162C2214.52 302.745 2215.43 303.443 2217 305.631C2217.68 308.698 2217.59 311.55 2217 314.631C2214.43 317.727 2212.89 318.486 2208.94 319.131C2206 318.631 2206 318.631 2203.69 317.068C2201.43 313.81 2201 311.586 2201 307.631C2203.5 302.294 2206.48 302.089 2211.88 302.162Z" fill="#1E422A"/>
</svg>
